<svg width="337" height="566" viewBox="0 0 337 566" fill="none" xmlns="http://www.w3.org/2000/svg">
<g filter="url(#filter0_d)">
<path d="M316.733 546H184.974L183.277 545.189C181.655 544.321 180.115 543.309 178.674 542.166H178.662C176.393 542.203 174.177 541.479 172.366 540.11C170.556 538.741 169.256 536.806 168.673 534.612C168.482 534.037 167.783 533.371 166.115 531.874C165.269 531.116 164.312 530.257 163.28 529.225C159.288 525.133 156.267 520.196 154.441 514.78C153.836 512.769 153.638 510.658 153.86 508.57C154.082 506.482 154.719 504.46 155.733 502.622C155.986 502.052 156.245 501.468 156.498 500.838C156.386 500.53 156.241 500.161 156.121 499.856C154.553 496.459 154.018 492.676 154.585 488.978C153.293 486.69 152.21 484.291 151.349 481.81C150.572 479.805 150.068 477.706 149.85 475.567C148.801 475.372 147.77 475.093 146.766 474.732C142.668 473.324 139.128 470.639 136.668 467.072C135.852 465.929 134.901 464.889 133.836 463.975C130.81 461.451 127.111 457.463 128.776 451.408C127.728 450.317 126.585 449.321 125.36 448.432C124.579 447.805 123.717 447.115 122.767 446.329C120.019 443.963 117.943 440.915 116.75 437.49C116.649 437.24 116.552 436.995 116.452 436.762C115.702 434.977 115.169 433.109 114.864 431.197C113.395 430.341 112.035 429.31 110.813 428.127C107.455 424.768 106.848 419.872 106.262 415.138C106.119 413.63 105.877 412.132 105.538 410.656C105.35 410.047 105.185 409.492 105.03 408.975C104.533 406.962 103.74 405.033 102.677 403.252C100.05 403.544 97.4108 402.81 95.3113 401.203C91.4573 398.218 91.2309 393.785 91.0657 390.549C91.023 389.716 90.977 388.81 90.8875 387.84C90.1886 387.5 89.5096 387.12 88.8537 386.703C86.7409 385.555 84.9436 383.904 83.6209 381.896C82.8112 380.537 82.3667 378.991 82.3305 377.409C80.4471 378.333 78.3106 378.605 76.256 378.183C74.5689 377.788 72.9593 377.116 71.4934 376.192C70.7748 375.788 70.0319 375.37 69.1118 374.926C67.8862 374.359 66.7264 373.66 65.6531 372.84C63.5411 372.424 61.5816 371.442 59.9831 370C58.3846 368.558 57.2069 366.71 56.5752 364.652C56.117 363.478 55.5585 362.346 54.9059 361.269C53.3383 359.014 52.3244 356.421 51.9467 353.701C51.656 353.586 51.3545 353.462 51.0423 353.328C49.1065 354.618 46.797 355.228 44.4768 355.061C38.3489 354.622 34.337 349.288 31.8524 345.314C30.982 343.948 30.2477 342.501 29.6599 340.992C29.4772 340.814 29.1583 340.517 28.6225 340.06C27.9328 339.471 27.4508 339.075 27.1251 338.807C26.7282 338.481 26.4697 338.262 26.31 338.117C24.9243 336.904 23.9769 335.268 23.6145 333.463C23.2521 331.657 23.4949 329.783 24.3052 328.129C23.5693 326.325 23.3627 324.349 23.7096 322.432C24.1016 320.431 25.1558 318.621 26.7025 317.292C26.0263 316.01 25.6832 314.579 25.7049 313.13C23.8653 311.295 22.4327 309.093 21.5003 306.667C20.5679 304.241 20.1566 301.647 20.2932 299.052L40.2491 20L48.5744 20.6512C49.2083 20.7007 112.563 25.6092 164.005 25.6092C215.639 25.6092 275.139 23.6436 275.734 23.6238L283.782 23.355L316.733 546Z" fill="#F6F8F3"/>
</g>
<g style="mix-blend-mode:multiply">
<path d="M300.832 275.882C300.491 273.019 300.17 270.315 299.974 267.737C298.275 245.451 296.913 227.214 295.687 210.345C294.311 191.414 292.865 171.113 291.606 150.927C291.386 147.395 290.994 143.66 290.616 140.049C289.731 131.611 288.816 122.885 289.854 115.417C289.901 115.083 289.915 114.784 289.935 114.372C289.949 114.094 289.977 113.516 290.007 113.289L290.866 106.976L284.509 106.777C280.246 106.643 273.804 106.441 270.783 104.025C269.758 103.205 269.592 102.407 269.335 99.3537C269.244 96.1885 268.464 93.0813 267.048 90.2501C265.906 88.053 264.23 86.1798 262.174 84.8038C260.119 83.4278 257.75 82.5935 255.287 82.378C255.034 82.3634 254.777 82.3559 254.523 82.3559C251.098 82.5466 247.777 83.6022 244.869 85.4245C244.071 85.8495 243.317 86.251 242.623 86.5621C241.27 87.2041 239.795 87.5487 238.298 87.5727C235.317 87.2881 232.428 86.3872 229.813 84.9268C225.805 82.8334 221.437 81.5203 216.94 81.0571C216.345 81.0192 215.743 81 215.15 81C209.581 81.2338 204.119 82.6097 199.102 85.0425C196.277 86.3318 193.329 87.332 190.304 88.0277C189.224 88.2275 188.128 88.3229 187.031 88.3126C184.531 88.2434 182.038 88.0039 179.571 87.5957L178.871 87.4977C174.821 86.9123 170.736 86.6098 166.644 86.5926C159.68 86.5975 152.752 87.5976 146.07 89.5628C142.831 90.3915 139.538 90.9909 136.216 91.3568C130.684 91.8562 125.249 93.1336 120.073 95.1513C116.53 96.6945 109.262 101.301 107.113 107.689C106.594 109.145 106.393 110.696 106.524 112.236C106.656 113.777 107.117 115.271 107.876 116.617C108.777 118.041 109.964 119.262 111.36 120.203C112.756 121.143 114.332 121.784 115.988 122.083C117.843 122.528 119.629 122.782 121.356 123.028C122.844 123.24 124.25 123.44 125.549 123.744C127.391 124.017 129.085 124.908 130.356 126.271C130.797 127.105 131.055 128.023 131.113 128.965C131.17 129.907 131.026 130.85 130.69 131.732C130.031 133.575 129.183 135.344 128.158 137.011C126.574 139.6 125.325 142.38 124.442 145.285C123.12 151.132 122.637 157.138 123.008 163.122C123.02 163.76 123.036 164.424 123.054 165.108C123.185 170.33 123.366 177.483 120.944 181.045C120.53 181.655 120.341 181.933 118.855 181.933C118.019 181.933 117.007 181.826 115.934 181.714C114.475 181.537 113.006 181.438 111.536 181.417C110.137 181.406 108.742 181.551 107.375 181.851C105.584 182.211 103.916 183.026 102.531 184.219C101.147 185.412 100.091 186.942 99.4676 188.661C98.8041 190.951 98.8476 193.389 99.5925 195.654C101.176 200.614 104.31 204.932 108.53 207.971C112.751 211.01 117.835 212.609 123.033 212.533C123.477 212.533 123.927 212.52 124.368 212.496C125.773 212.406 127.17 212.223 128.551 211.95C126.28 215.675 124.325 219.584 122.706 223.636C121.876 225.715 119.672 231.239 122.355 236.366C126.598 244.474 135.287 244.474 138.998 244.474C139.966 244.474 140.921 244.451 141.845 244.429C142.726 244.408 143.558 244.388 144.36 244.388C148.912 244.388 149.191 245.086 149.415 245.647C149.586 246.078 149.755 246.592 149.933 247.137C150.455 248.962 151.241 250.701 152.264 252.3C155.284 256.721 159.986 258.114 163.764 259.232C165.103 259.588 166.415 260.042 167.689 260.59C169.254 261.383 170.566 262.601 171.474 264.105C172.381 265.609 172.848 267.338 172.822 269.096C172.487 271.676 171.723 274.182 170.562 276.509C169.928 278.019 169.272 279.58 168.717 281.25C167.227 285.247 167.113 289.627 168.392 293.696C169.671 297.765 172.271 301.289 175.777 303.709C182.214 308.78 188.202 314.397 193.674 320.499C197.941 325.042 202.654 329.478 209.188 329.478C213.219 329.342 217.08 327.819 220.121 325.165C224.896 321.406 227.151 315.931 226.824 308.893C226.39 303.948 225.347 299.077 223.72 294.388L223.539 293.796L223.37 293.249C223.006 292.241 222.755 291.196 222.622 290.133C226.314 290.611 232.992 294.726 235.697 297.039L235.312 298.112C241.023 300.659 246.104 304.437 250.192 309.175C249.618 309.173 249.039 309.164 248.461 309.156C247.693 309.146 246.929 309.135 246.187 309.135C244.407 309.095 242.627 309.216 240.869 309.497C238.779 309.789 236.805 310.637 235.153 311.953C233.543 313.464 232.425 315.425 231.945 317.582C231.465 319.739 231.646 321.991 232.462 324.044C234.13 328.939 238.21 334.774 248.171 334.774C251.647 334.661 255.102 334.193 258.483 333.376C259.27 333.212 260.015 333.057 260.713 332.924C261.001 332.869 261.294 332.841 261.588 332.841C262.814 332.932 264.02 333.202 265.169 333.64C267.415 334.443 269.769 334.9 272.151 334.999C272.213 334.999 272.274 335 272.335 335C275.447 334.918 278.457 333.867 280.947 331.994C284.046 329.817 286.578 326.927 288.33 323.566C288.627 322.996 288.888 322.436 289.118 321.943C289.812 320.204 290.954 318.68 292.426 317.527L292.844 317.117C298.249 311.64 301.453 304.361 301.846 296.669C302.232 289.724 301.892 282.757 300.832 275.882Z" fill="#B0BF68" fill-opacity="0.2"/>
</g>
<g style="mix-blend-mode:multiply">
<path d="M292.861 161.102H270.107C269.29 151.804 268.983 142.463 267.976 133.181C267.472 128.531 268.189 125.903 264.179 124.214C257.297 121.32 245.89 124.514 238.551 124.482C235.724 124.47 227.116 122.859 224.862 124.339C222.002 126.217 222.716 131.581 222.716 134.58C222.716 139.233 223.181 145.282 215.747 145.282C208.313 145.282 211.101 144.817 186.477 145.747C161.853 146.678 161.388 143.887 159.065 148.072C154.976 155.443 155.409 163.37 155.025 171.495C154.607 180.336 152.044 188.848 151.643 197.729C151.526 200.333 151.719 203.378 153.852 204.873C156.506 206.733 160.66 207.564 157.987 211.778C156.796 213.245 155.489 214.614 154.08 215.873C147.56 223.224 152.075 230.997 161.225 231.749C171.381 232.583 176.429 223.33 185.033 220.06C188.27 218.829 195.028 218.496 196.114 222.898C197.004 226.511 193.227 228.6 192.882 231.853C192.401 236.398 197.18 239.763 198.795 243.771C201.566 250.645 198.962 251.116 192.475 253.042C191.555 253.235 190.698 253.656 189.985 254.268C186.681 257.64 193.776 264.955 190.26 270.062C187.184 274.53 185.576 272.945 185.564 279.252C185.559 281.9 186.435 284.87 188.802 286.053C197.683 290.487 203.192 278.28 202.483 271.618C202.335 270.223 202.131 268.508 203.281 267.707C204.01 267.321 204.853 267.207 205.659 267.384C212.329 268.094 219.116 271.277 225.885 270.638C231.005 270.154 230.784 266.449 234.118 264.115C238.429 261.096 240.381 264.889 241.944 268.479C244.107 273.446 244.304 276.93 250.388 278.178C253.088 278.731 255.797 279.244 258.514 279.714C260.03 280.087 261.61 280.121 263.141 279.812C269.2 278.124 268.798 265.07 268.624 260.356C268.488 256.698 265.808 250.489 271.754 250.373C277.354 250.265 283.163 251.945 288.69 250.436C293.801 249.04 298 242.747 298 242.747L292.861 161.102Z" fill="#B0BF68" fill-opacity="0.3"/>
</g>
<defs>
<filter id="filter0_d" x="0.267578" y="0" width="336.466" height="566" filterUnits="userSpaceOnUse" color-interpolation-filters="sRGB">
<feFlood flood-opacity="0" result="BackgroundImageFix"/>
<feColorMatrix in="SourceAlpha" type="matrix" values="0 0 0 0 0 0 0 0 0 0 0 0 0 0 0 0 0 0 127 0"/>
<feOffset/>
<feGaussianBlur stdDeviation="10"/>
<feColorMatrix type="matrix" values="0 0 0 0 0 0 0 0 0 0 0 0 0 0 0 0 0 0 0.15 0"/>
<feBlend mode="normal" in2="BackgroundImageFix" result="effect1_dropShadow"/>
<feBlend mode="normal" in="SourceGraphic" in2="effect1_dropShadow" result="shape"/>
</filter>
</defs>
</svg>
