<?xml version="1.0" encoding="utf-8"?>
<!-- Generator: Adobe Illustrator 15.0.2, SVG Export Plug-In . SVG Version: 6.00 Build 0)  -->
<!DOCTYPE svg PUBLIC "-//W3C//DTD SVG 1.1//EN" "http://www.w3.org/Graphics/SVG/1.1/DTD/svg11.dtd">
<svg version="1.1" id="Layer_1" xmlns="http://www.w3.org/2000/svg" xmlns:xlink="http://www.w3.org/1999/xlink" x="0px" y="0px"
	 width="166.84px" height="200px" viewBox="0 0 166.84 200" enable-background="new 0 0 166.84 200" xml:space="preserve">
<path fill="#231F20" d="M97.631,0.735c-40.224,0-54.418,62.313-67.641,112.438c-4.783-4.82-19.502-19.458-19.517-19.433
	c-2.96-2.924-6.36-1.973-8.443,0.053c-2.096,2.105-2.402,5.965,0,8.306c0.121,0.104,19.944,19.814,26.795,26.645
	c1.89,1.834,4.625,2.914,7.358,1.322c2.832-1.738,3.22-4.809,3.297-4.809C62.965,20.336,83.953,12.512,97.576,12.512
	c11.46,0,24.667,8.44,24.667,25.321c17.09,0,27.801,22.391,14.047,36.174c11.404,5.501,16.49,12.266,16.49,20.826
	c0,8.57-7.197,17.318-17.701,17.294c-10.416,0-15.709-6.674-23.824-6.703c-3.68,0-5.912,2.965-5.912,5.889v21.182H90.021v-21.104
	c-0.042-3.307-2.484-5.908-5.525-5.908c-0.049,0-1.311,0.037-1.292,0.08l-20.521,2.521c-2.475,0.373-4.761,3.053-4.761,5.82
	c0,3.244,2.666,5.938,6.302,5.893c0.463,0,1.085,0,1.024-0.053c-0.037,0,12.99-1.65,12.99-1.65v20.908
	c0,2.645,3.009,5.24,5.713,5.24h27.261c3.17,0,5.924-2.729,5.924-5.932v-19.094c5.705,3.469,13.639,4.814,17.709,4.814
	c15.293,0,29.879-11.984,29.836-29.564c-0.059-15.934-12.293-23.893-12.293-23.893c7.18-19.063-4.432-37.465-19.471-42.583
	C127.495,8.327,110.651,0.735,97.631,0.735"/>
<path fill="#231F20" d="M97.631,0.735c-40.224,0-54.418,62.313-67.641,112.438c-4.783-4.82-19.502-19.458-19.517-19.433
	c-2.96-2.924-6.36-1.973-8.443,0.053c-2.096,2.105-2.402,5.965,0,8.306c0.121,0.104,19.944,19.814,26.795,26.645
	c1.89,1.834,4.625,2.914,7.358,1.322c2.832-1.738,3.22-4.809,3.297-4.809C62.965,20.336,83.953,12.512,97.576,12.512
	c11.46,0,24.667,8.44,24.667,25.321c17.09,0,27.801,22.391,14.047,36.174c11.404,5.501,16.49,12.266,16.49,20.826
	c0,8.57-7.197,17.318-17.701,17.294c-10.416,0-15.709-6.674-23.824-6.703c-3.68,0-5.912,2.965-5.912,5.889v21.182H90.021v-21.104
	c-0.042-3.307-2.484-5.908-5.525-5.908c-0.049,0-1.311,0.037-1.292,0.08l-20.521,2.521c-2.475,0.373-4.761,3.053-4.761,5.82
	c0,3.244,2.666,5.938,6.302,5.893c0.463,0,1.085,0,1.024-0.053c-0.037,0,12.99-1.65,12.99-1.65v20.908
	c0,2.645,3.009,5.24,5.713,5.24h27.261c3.17,0,5.924-2.729,5.924-5.932v-19.094c5.705,3.469,13.639,4.814,17.709,4.814
	c15.293,0,29.879-11.984,29.836-29.564c-0.059-15.934-12.293-23.893-12.293-23.893c7.18-19.063-4.432-37.465-19.471-42.583
	C127.495,8.327,110.651,0.735,97.631,0.735"/>
<path fill="#231F20" d="M80.462,167.559c0,4.926,5.513,7.898,14.597,12.205c7.205,3.359,11.348,6.92,11.348,9.783
	c0,4.627-4.988,6.266-9.665,6.266c-7.235,0-11.506-2.875-13.875-9.328l-0.207-0.545h-0.584c-1.271,0-2.284,0.059-2.848,0.744
	c-0.503,0.662-0.361,1.529-0.155,2.373c-0.016-0.02,1.598,6.617,1.598,6.617c0.431,1.613,1.014,1.875,3.598,2.383
	c1.134,0.195,6.984,1.207,11.94,1.207c13.823,0,19.993-5.598,19.993-11.154c0-4.045-4.016-7.91-12.682-12.227l-3.937-1.893
	c-5.929-2.816-9.52-4.49-9.52-7.461c0-2.877,3.718-4.879,9.024-4.879c6.928,0,8.777,3.859,9.625,7.219l0.15,0.631h0.656
	c1.541,0,2.514-0.127,3.084-0.746c0.332-0.352,0.467-0.838,0.387-1.406l-0.541-5.732c-0.152-1.846-1.557-2.111-3.51-2.506
	c-2.324-0.412-5.102-0.916-9.299-0.916C87.629,158.193,80.462,161.701,80.462,167.559"/>
<path fill="#231F20" d="M120.276,179.162c0,9.979,8.68,20.102,25.307,20.102c8.377,0,13.084-1.916,16.598-3.777l0.947-0.498
	l-1.533-1.711l0.084,0.086c-0.371-0.51-0.66-0.613-1.223-0.613l-0.807,0.279c-1.26,0.582-5.104,2.359-12.08,2.359
	c-8.598,0-17.848-5.588-17.848-17.895c0-11.707,10.041-15.844,18.598-15.844c6.168,0,9.447,2.191,10.057,6.732l0.07,0.742h0.766
	c0.734,0,2.682,0,2.682-1.457v-6.822c0-1.682-1.932-1.912-2.738-2.033l-0.805-0.115c-1.971-0.256-3.863-0.504-8.867-0.504
	C132.554,158.193,120.276,167.014,120.276,179.162"/>
<path fill="#231F20" d="M57.652,158.686l-14.97,0.121l-9.975-0.164l-1.517-0.035c-0.889,0-1.528,0.637-1.528,1.559
	c0,0.424,0,1.766,1.652,1.766c6.029,0,6.251,0.484,6.306,2.789l0.058,1.451l0.094,6.15v13.229c0,2.189-0.079,5.678-0.222,8.49
	c-0.04,0.814-0.081,1.578-5.404,1.578c-1.51,0-2.402,0.303-2.402,1.76c0,0.436,0,1.559,1.447,1.559h0.334
	c0.636-0.031,2.323-0.109,10.654-0.109c8.874,0,10.654,0.092,11.258,0.109h0.312c1.165,0,2.178-0.109,2.178-1.559
	c0-1.625-1.346-1.76-3.597-1.76c-5.347,0-5.39-0.764-5.429-1.561c-0.127-2.582-0.236-6.07-0.236-8.508v-4.775h4.486
	c6.863,0,7.624,0.195,8.607,5.465c0.282,1.148,1.2,1.293,1.965,1.293c1.614,0,1.79-0.879,1.79-1.271l-0.136-1.979
	c-0.115-1.111-0.225-2.531-0.225-4.453v-8.109c0-1.215-1.468-1.215-2.251-1.215c-1.294,0-1.595,0.82-2.417,4.654
	c-0.379,1.455-3.212,2.299-7.773,2.299h-4.046v-11.908c0-3.244,0.574-3.268,1.289-3.279c2.626-0.121,8.986-0.34,10.898-0.34
	c1.819,0,3.493,0.416,4.561,1.121c3.403,2.098,5.141,3.529,6.196,4.391c1.032,0.824,1.61,1.311,2.448,1.311
	c0.498,0,1.941,0,1.941-1.248c0-0.305-0.137-0.584-0.601-1.615c-0.549-1.225-1.483-3.232-2.666-6.318
	c-0.343-0.984-1.465-0.984-3.564-0.984L57.652,158.686z"/>
<path fill="#231F20" d="M152.573,12.794h2.115c0.967,0,1.637-0.158,2.027-0.431c0.373-0.279,0.564-0.676,0.564-1.197
	c0-0.492-0.191-0.889-0.543-1.171c-0.357-0.273-1.082-0.428-2.178-0.428h-1.986V12.794z M159.878,18.817h-2.127
	c-1.33-2.417-2.217-3.773-2.611-4.091c-0.414-0.304-0.916-0.452-1.537-0.452h-1.029v4.543h-1.738V8.123h3.725
	c1.109,0,1.947,0.08,2.555,0.252c0.598,0.139,1.086,0.473,1.459,0.989c0.375,0.497,0.57,1.067,0.57,1.652
	c0,0.731-0.266,1.386-0.807,1.987c-0.525,0.601-1.277,0.935-2.27,1.013v0.03c0.631,0.158,1.477,1.053,2.49,2.691L159.878,18.817z
	 M155.2,21.623c2.291,0,4.242-0.8,5.871-2.432c1.629-1.635,2.461-3.585,2.475-5.89c0-2.284-0.82-4.24-2.451-5.854
	c-1.637-1.614-3.604-2.441-5.895-2.441c-2.293,0-4.266,0.813-5.877,2.426c-1.627,1.628-2.434,3.584-2.447,5.868
	c0,2.29,0.82,4.255,2.432,5.875C150.935,20.803,152.892,21.623,155.2,21.623 M155.241,3.362c2.717,0,5.053,0.967,7.01,2.899
	c1.973,1.956,2.949,4.304,2.949,7.039c0,2.742-0.977,5.089-2.924,7.036c-1.953,1.941-4.297,2.923-7.035,2.923
	c-2.76,0-5.127-0.958-7.07-2.898c-1.973-1.956-2.949-4.305-2.949-7.061c0-2.735,0.977-5.068,2.949-7.024
	C150.114,4.329,152.481,3.362,155.241,3.362"/>
<path fill="#231F20" d="M155.243,23.782c-2.912,0-5.416-1.029-7.449-3.063c-2.057-2.035-3.092-4.528-3.092-7.418
	c0-2.869,1.035-5.356,3.092-7.388c2.047-2.044,4.553-3.088,7.449-3.088c2.838,0,5.332,1.038,7.391,3.069
	c2.061,2.035,3.092,4.521,3.092,7.406c0,2.875-1.025,5.362-3.078,7.395C160.608,22.745,158.108,23.782,155.243,23.782
	 M155.243,3.883c-2.6,0-4.857,0.929-6.703,2.775c-1.875,1.862-2.795,4.031-2.795,6.642c0,2.632,0.92,4.816,2.795,6.67
	c1.824,1.825,4.09,2.759,6.703,2.759c2.611,0,4.797-0.904,6.662-2.775c1.836-1.838,2.771-4.067,2.771-6.654
	c0-2.586-0.941-4.833-2.785-6.663C160.04,4.806,157.798,3.883,155.243,3.883"/>
<path fill="#231F20" d="M155.206,22.154c-2.42,0-4.527-0.874-6.266-2.603c-1.723-1.723-2.598-3.828-2.598-6.251
	c0.021-2.442,0.898-4.537,2.613-6.245c1.707-1.704,3.809-2.578,6.25-2.578c2.418,0,4.525,0.874,6.262,2.592
	c1.736,1.708,2.611,3.813,2.611,6.23c-0.014,2.43-0.898,4.534-2.635,6.266C159.731,21.289,157.624,22.154,155.206,22.154
	 M155.206,5.53c-2.148,0-3.996,0.771-5.498,2.275c-1.543,1.528-2.283,3.32-2.301,5.501c0,2.129,0.766,3.983,2.283,5.496
	c1.549,1.543,3.354,2.299,5.516,2.299c2.164,0,3.955-0.75,5.498-2.29c1.541-1.538,2.299-3.345,2.324-5.52
	c0-2.151-0.762-3.943-2.299-5.478C159.196,6.301,157.335,5.53,155.206,5.53"/>
<path fill="#231F20" d="M160.835,19.338h-3.391l-0.152-0.273c-1.826-3.312-2.379-3.857-2.475-3.933
	c-0.301-0.212-0.707-0.336-1.209-0.336h-0.51v4.542h-2.791V7.596h4.252c1.213,0,2.068,0.084,2.697,0.254
	c0.707,0.183,1.301,0.58,1.75,1.195c0.439,0.598,0.66,1.261,0.66,1.962c0,0.874-0.318,1.663-0.943,2.348
	c-0.357,0.412-0.813,0.716-1.359,0.925c0.502,0.485,1.041,1.201,1.652,2.175L160.835,19.338z M158.063,18.286h0.852l-0.801-1.27
	c-1.301-2.102-1.99-2.409-2.162-2.445l-0.283-0.063C156.181,15.06,156.972,16.324,158.063,18.286 M151.36,18.286h0.686v-4.543h1.563
	c0.721,0,1.352,0.188,1.848,0.555c0.023,0.015,0.053,0.037,0.086,0.069v-0.803l0.486-0.085c0.855-0.063,1.477-0.336,1.906-0.828
	c0.465-0.506,0.684-1.034,0.684-1.644c0-0.466-0.16-0.928-0.465-1.34s-0.689-0.67-1.168-0.785c-0.539-0.164-1.322-0.233-2.426-0.233
	h-3.199V18.286z"/>
<path fill="#231F20" d="M154.694,13.315h-2.645V9.037h2.514c1.213,0,2.025,0.179,2.498,0.545c0.494,0.382,0.75,0.935,0.75,1.584
	c0,0.685-0.264,1.231-0.773,1.62C156.536,13.151,155.767,13.315,154.694,13.315 M153.103,12.264h1.592
	c1.043,0,1.514-0.188,1.723-0.337c0.229-0.179,0.344-0.412,0.344-0.761c0-0.322-0.121-0.57-0.344-0.759
	c-0.1-0.069-0.52-0.318-1.854-0.318h-1.461V12.264z"/>
</svg>
