<svg width="477" height="497" viewBox="0 0 477 497" fill="none" xmlns="http://www.w3.org/2000/svg">
<g filter="url(#filter0_d)">
<path d="M238.612 481.989C361.777 481.989 461.621 381.905 461.621 258.445C461.621 134.985 361.777 34.9003 238.612 34.9003C115.448 34.9003 15.6035 134.985 15.6035 258.445C15.6035 381.905 115.448 481.989 238.612 481.989Z" fill="white"/>
<g opacity="0.8">
<g opacity="0.8">
<path opacity="0.8" d="M238.5 482C361.753 482 461.669 381.844 461.669 258.294C461.669 134.745 361.753 34.5886 238.5 34.5886C115.247 34.5886 15.3301 134.745 15.3301 258.294C15.3301 381.844 115.247 482 238.5 482Z" fill="#D0D4BC"/>
<path opacity="0.8" d="M402.125 208.984C400.38 201.212 398.248 192.236 383.673 188C379.1 186.388 374.149 186.197 369.466 187.452C364.784 188.707 360.588 191.349 357.429 195.034C351.206 202.861 346.224 211.603 342.659 220.952C336.612 234.28 330.409 248.152 319.788 252.777C301.995 260.548 279.627 282.153 273.27 306.245C271.338 312.737 270.924 319.588 272.06 326.266C273.197 332.944 275.852 339.27 279.821 344.754C287.768 355.75 290.908 365.659 289.164 374.208C287.879 380.012 284.407 385.094 279.472 388.391C275.984 389.207 272.378 390.14 268.424 391.344C263.036 393.015 257.725 394.919 252.918 396.823C254.647 394.348 255.957 391.604 256.795 388.702C258.563 381.816 258.143 374.548 255.593 367.913C251.019 355.362 241.211 346.463 233.769 348.095C229.233 349.106 224.155 353.885 225.512 371.177C228.419 408.131 173.954 425.85 144.687 432.689C145.531 431.074 146.257 429.398 146.858 427.677C147.615 425.392 148.134 423.035 148.408 420.643C148.641 418.305 148.641 415.949 148.408 413.61C148.194 411.673 147.858 409.753 147.4 407.859C146.625 404.595 146.005 402.419 145.772 400.942C145.579 399.824 145.579 398.68 145.772 397.562C145.897 396.967 146.065 396.382 146.276 395.813C146.549 395.079 146.873 394.365 147.245 393.676C148.198 391.947 149.287 390.296 150.502 388.741C151.91 386.941 153.411 385.216 154.998 383.573C158.458 379.998 162.107 376.612 165.93 373.431L169.147 370.711L170.892 369.195L172.636 367.602C173.233 367.089 173.802 366.544 174.342 365.97L176.048 364.338L177.676 362.589L179.304 360.802L180.893 359.014L182.405 357.11C182.948 356.489 183.413 355.828 183.917 355.168L185.351 353.186C191.134 345.031 195.185 335.773 197.252 325.985C198.481 319.954 199.22 313.834 199.462 307.683C199.616 302.767 200.043 297.863 200.741 292.995C201 291.373 201.469 289.793 202.136 288.293C202.686 287.091 203.447 285.998 204.385 285.068C205.542 283.949 206.846 282.995 208.261 282.231C210.037 281.238 211.891 280.393 213.805 279.705C215.898 278.967 218.108 278.345 220.433 277.762C222.759 277.179 225.163 276.674 227.644 276.286C232.567 275.431 237.684 274.809 242.878 274.343L246.755 274.032L250.631 273.76L255.012 273.449L259.47 272.983C265.647 272.239 271.745 270.938 277.689 269.097C280.954 268.094 284.12 266.794 287.148 265.211C290.534 263.566 293.678 261.461 296.49 258.955C299.573 256.284 302.193 253.12 304.243 249.59C306.123 246.27 307.52 242.698 308.391 238.982C309.161 235.763 309.679 232.489 309.942 229.19C310.252 226.12 310.407 223.244 310.562 220.524C310.659 215.756 311.204 211.007 312.19 206.341C312.967 202.642 314.63 199.188 317.036 196.277C318.292 194.839 319.696 193.537 321.222 192.391L322.463 191.497L323.083 191.031L323.781 190.604L325.137 189.749L326.611 188.972C330.736 186.815 335.076 185.096 339.558 183.842L343.124 182.832L347.001 181.938L350.877 181.161C352.118 180.889 353.397 180.695 354.754 180.462C359.832 179.607 365.027 178.869 370.26 178.363C375.493 177.858 380.804 177.47 386.115 177.159H390.34L393.868 176.965H400.729C402.84 177.095 404.939 177.38 407.009 177.819C407.785 177.988 408.549 178.209 409.296 178.48C410.439 178.823 411.403 179.6 411.982 180.646C412.561 181.691 412.71 182.922 412.397 184.076V184.503L412.203 185.436V187.456C412.183 187.806 412.183 188.156 412.203 188.505V192.158C412.274 192.593 412.378 193.021 412.514 193.44C412.724 194.323 413.022 195.182 413.405 196.005C413.763 196.846 414.218 197.641 414.762 198.375C415.011 198.754 415.283 199.117 415.576 199.463C415.84 199.805 416.124 200.129 416.429 200.435L417.32 201.29C417.6 201.557 417.898 201.803 418.212 202.028L419.104 202.727L419.995 203.271C422.003 204.447 424.171 205.324 426.43 205.875C428.228 206.306 430.055 206.604 431.896 206.769H436.819C439.854 206.717 442.883 206.483 445.89 206.069C449.224 205.642 452.441 205.02 455.62 204.321C454.031 197.909 452.131 191.653 449.999 185.474C447.79 185.902 445.619 186.252 443.448 186.485C441.21 186.757 438.958 186.899 436.703 186.912C432.826 186.912 433.253 183.998 433.253 183.998C433.392 182.395 433.392 180.783 433.253 179.179C433.083 176.705 432.507 174.276 431.547 171.991C430.534 169.661 429.116 167.529 427.361 165.696C425.817 164.073 424.056 162.673 422.127 161.538C418.925 159.715 415.459 158.404 411.855 157.652C408.755 156.929 405.607 156.435 402.435 156.175C399.411 155.942 396.426 155.865 393.48 155.903H385.107C379.602 156.137 374.136 156.409 368.593 156.875C363.05 157.341 357.235 158.002 351.498 158.896L347.233 159.634L342.892 160.45L338.589 161.421L334.247 162.548C328.224 164.17 322.38 166.396 316.803 169.193L314.671 170.359L312.5 171.602L311.453 172.263L310.368 173.001C309.67 173.467 308.972 173.934 308.275 174.478C305.453 176.604 302.856 179.012 300.522 181.666C298.138 184.443 296.095 187.496 294.436 190.759C292.782 193.922 291.482 197.258 290.559 200.707C290.042 202.665 289.628 204.65 289.319 206.652C286.217 197.248 278.348 188.039 265.75 179.179C256.64 172.729 252.259 167.133 252.725 162.509C253.616 154.077 270.285 146.966 287.884 139.467C301.568 133.638 317.036 127.032 327.929 118.483C340.992 108.302 345.722 96.917 342.388 83.511C338.783 69.2889 327.231 57.2429 312.035 46.6347C306.065 44.5364 299.979 42.6841 293.777 41.078C315.369 53.5126 333.084 67.618 337.426 84.7933C343.435 110.245 312.423 123.34 285.287 134.92C265.401 143.391 248.228 150.735 247.026 162.121C246.328 168.843 251.29 175.838 262.183 183.532C278.348 194.917 286.024 206.497 285.016 217.999C283.892 231.133 271.719 241.78 262.455 248.075C260.555 248.386 258.578 248.658 256.756 248.852L252.88 249.163L249.003 249.396L244.855 249.629C243.43 249.589 242.004 249.667 240.591 249.862C234.854 250.29 228.962 250.834 223.225 251.766C217.214 252.655 211.288 254.046 205.509 255.924C202.27 257.073 199.132 258.49 196.128 260.16C192.7 261.977 189.542 264.266 186.747 266.96C183.72 269.854 181.227 273.261 179.381 277.024C177.701 280.477 176.476 284.134 175.737 287.904C175.089 291.086 174.636 294.304 174.381 297.541C174.109 300.533 173.954 303.292 173.76 305.934C173.48 310.744 172.832 315.524 171.822 320.234C171.081 323.383 170.043 326.453 168.721 329.405C168.913 317.46 165.915 305.68 160.038 295.287C153.708 284.716 145.082 275.711 134.802 268.942C144.365 272.129 153.638 276.133 162.519 280.91L165.31 276.558C164.147 275.819 138.174 259.616 17.4603 228.374C17.2277 230.083 16.9951 231.793 16.8013 233.542C24.2829 235.446 31.3769 237.428 38.1608 239.176L34.9045 238.788C28.5083 238.127 22.4222 237.428 16.4912 236.689C16.4912 238.36 16.2198 240.109 16.1035 241.819C21.9958 242.518 28.0431 243.217 34.3618 243.878C69.2502 247.492 97.4711 254.681 118.52 265.289C135.693 273.915 148.137 284.718 155.541 297.774C162.57 310.289 165.127 324.833 162.79 339.003C161.771 340.352 160.684 341.649 159.534 342.888C159.185 343.316 158.758 343.743 158.371 344.132L157.169 345.375L155.89 346.58L154.611 347.746L153.293 348.911L151.936 350.077L150.502 351.204L148.796 352.603C144.119 356.394 139.654 360.442 135.422 364.727C133.152 366.983 131.017 369.37 129.026 371.876C126.806 374.604 124.822 377.516 123.095 380.581C122.131 382.294 121.289 384.073 120.575 385.904C119.746 387.852 119.085 389.867 118.598 391.927C118.128 394.112 117.868 396.337 117.823 398.572C117.758 400.702 117.875 402.834 118.172 404.945C118.753 408.83 119.645 412.017 120.071 414.076C120.256 414.856 120.385 415.648 120.459 416.447C120.503 416.834 120.503 417.225 120.459 417.612C120.409 417.942 120.331 418.267 120.226 418.584C120.011 419.078 119.765 419.558 119.49 420.022C119.179 420.566 118.714 421.226 118.21 421.926C117.641 422.682 117.033 423.409 116.388 424.102C115.032 425.578 113.403 427.133 111.659 428.687C109.915 430.241 108.015 431.757 106.038 433.272L104.526 434.399L102.743 435.798C110.692 441.926 119.046 447.509 127.746 452.507C128.754 451.652 129.724 450.836 130.693 449.942C133.127 447.748 135.431 445.412 137.593 442.948C138.717 441.704 139.802 440.305 140.888 439.062C154.25 436.265 167.358 432.366 180.079 427.405C193.22 422.581 205.343 415.332 215.82 406.033C226.675 395.696 231.636 383.884 230.629 371.06C229.659 358.937 232.179 353.963 234.854 353.38C239.079 352.486 246.949 359.481 250.748 369.934C253.19 376.578 256.834 393.054 238.575 402.691C235.048 404.595 232.954 405.644 232.179 406.033H231.908C231.61 406.151 231.337 406.327 231.107 406.55C230.877 406.774 230.692 407.041 230.565 407.336C230.437 407.631 230.369 407.948 230.364 408.27C230.359 408.591 230.417 408.911 230.535 409.21C230.652 409.609 230.865 409.974 231.155 410.272C231.445 410.57 231.803 410.792 232.198 410.919C232.594 411.047 233.014 411.075 233.423 411.002C233.832 410.93 234.217 410.758 234.544 410.501C246.093 404.989 257.994 400.251 270.169 396.318C291.373 389.751 305.445 389.44 310.794 395.424C315.136 400.282 316.26 412.716 296.762 444.347C288.117 458.374 283.194 469.371 281.876 477.842L287.342 476.677C290.36 466.135 295.003 456.132 301.103 447.028C318.354 419.089 322.773 401.098 314.593 391.966C309.903 386.759 301.181 385.088 288.698 386.798C291.453 383.415 293.354 379.416 294.242 375.141C296.374 365.115 292.963 353.807 284.085 341.567C280.534 336.711 278.165 331.09 277.169 325.152C276.173 319.214 276.577 313.125 278.348 307.372C284.357 284.834 305.484 264.628 322.036 257.284C334.441 251.727 341.109 237.078 347.505 222.895C356.111 203.893 363.553 187.495 382.393 192.896C394.023 196.277 395.573 202.378 397.279 210.072C398.868 217.144 400.652 225.11 411.041 230.822C420.848 236.223 436.819 238.593 460.931 238.593C460.859 236.876 460.691 235.163 460.427 233.464C407.668 233.658 404.838 221.146 402.125 208.984ZM286.179 231.327C286.119 232.053 285.976 232.771 285.752 233.464C285.348 235.103 284.708 236.673 283.853 238.127C283.11 239.375 282.167 240.491 281.062 241.43C279.731 242.542 278.258 243.47 276.681 244.189L275.208 244.811C279.571 240.943 283.276 236.389 286.179 231.327Z" fill="#EFF1E9"/>
<path opacity="0.8" d="M108.639 106.359C119.532 96.2562 128.021 81.1016 133.875 61.284C133.962 61.0713 134.027 60.8499 134.068 60.6234C131.859 61.7892 129.688 63.0326 127.556 64.2761C123.402 78.7252 115.698 91.8987 105.15 102.59C99.8884 107.432 93.7039 111.158 86.9687 113.542C80.2335 115.926 73.0868 116.919 65.9585 116.462C64.6405 118.094 63.3613 119.765 62.082 121.436C70.4671 122.42 78.9653 121.583 86.9988 118.982C95.0324 116.38 102.413 112.075 108.639 106.359Z" fill="#EFF1E9"/>
<path opacity="0.8" d="M162.947 150.23H139.029V143.741L140.58 148.093L142.557 143.741L142.169 147.627L143.255 144.479L143.991 147.976L144.728 143.78L145.387 147.665L147.17 143.78L146.937 146.5L148.139 143.78L147.635 149.22L149.108 144.712V147.976L151.008 143.78L150.465 149.22L152.907 143.78V145.14L153.45 143.78V145.178L154.07 143.78L153.489 147.121L154.807 143.818V146.072L155.815 143.818L155.311 148.87L156.784 144.362V148.637L158.722 143.818L158.489 148.287L160.272 143.818L160.001 149.531C160.166 149.138 160.309 148.735 160.428 148.326L161.668 144.673V148.093L163.374 143.818L163.025 150.852L162.947 150.23Z" fill="#70B990"/>
<path opacity="0.8" d="M171.941 99.4816L181.4 63.3436C181.446 63.2156 181.53 63.1048 181.641 63.0265C181.752 62.9483 181.885 62.9062 182.02 62.9062C182.156 62.9062 182.289 62.9483 182.4 63.0265C182.511 63.1048 182.595 63.2156 182.641 63.3436L191.75 99.4816C191.771 99.5659 191.774 99.6534 191.761 99.7392C191.748 99.8249 191.718 99.9072 191.673 99.9812C191.627 100.055 191.568 100.12 191.498 100.171C191.428 100.222 191.349 100.259 191.265 100.279C191.221 100.29 191.176 100.296 191.13 100.298H172.562C172.461 100.303 172.361 100.283 172.269 100.241C172.178 100.198 172.098 100.134 172.037 100.053C171.976 99.9731 171.935 99.879 171.919 99.7794C171.902 99.6797 171.91 99.5775 171.941 99.4816Z" fill="#B5BB9C"/>
<path opacity="0.8" d="M242.222 84.3267L251.719 48.1887C251.753 48.055 251.831 47.9364 251.94 47.8518C252.048 47.7671 252.182 47.7212 252.32 47.7212C252.458 47.7212 252.591 47.7671 252.7 47.8518C252.809 47.9364 252.887 48.055 252.921 48.1887L262.031 84.3267C262.062 84.4226 262.07 84.5248 262.053 84.6245C262.037 84.7241 261.996 84.8182 261.935 84.8986C261.874 84.9789 261.794 85.0432 261.703 85.0857C261.611 85.1282 261.511 85.1478 261.41 85.1427H242.842C242.667 85.1373 242.502 85.0626 242.382 84.935C242.262 84.8074 242.198 84.6374 242.203 84.4623C242.205 84.4166 242.211 84.3711 242.222 84.3267Z" fill="#B5BB9C"/>
<path opacity="0.8" d="M195.316 101.036L203.301 70.649C203.301 70.515 203.355 70.3865 203.449 70.2918C203.544 70.197 203.672 70.1438 203.805 70.1438C203.939 70.1438 204.067 70.197 204.162 70.2918C204.256 70.3865 204.309 70.515 204.309 70.649L212.062 101.036C212.088 101.114 212.093 101.197 212.08 101.277C212.066 101.358 212.033 101.434 211.983 101.499C211.934 101.564 211.869 101.616 211.795 101.65C211.721 101.685 211.64 101.701 211.558 101.697H196.052C195.957 101.739 195.851 101.752 195.749 101.736C195.646 101.719 195.55 101.674 195.472 101.604C195.394 101.534 195.338 101.444 195.31 101.343C195.283 101.242 195.285 101.136 195.316 101.036Z" fill="#B5BB9C"/>
<path opacity="0.8" d="M346.539 109.274L355.998 73.1359C356.044 73.0078 356.128 72.8971 356.239 72.8188C356.35 72.7405 356.482 72.6985 356.618 72.6985C356.754 72.6985 356.886 72.7405 356.997 72.8188C357.108 72.8971 357.192 73.0078 357.238 73.1359L366.348 109.274C366.372 109.367 366.374 109.465 366.354 109.56C366.334 109.654 366.292 109.743 366.232 109.818C366.172 109.893 366.095 109.954 366.007 109.994C365.92 110.035 365.824 110.054 365.728 110.051H347.314C347.207 110.084 347.092 110.087 346.983 110.06C346.873 110.033 346.773 109.976 346.693 109.896C346.614 109.816 346.557 109.716 346.53 109.607C346.503 109.497 346.506 109.382 346.539 109.274Z" fill="#B5BB9C"/>
<path opacity="0.8" d="M91.7353 153.339L101.233 117.201C101.267 117.067 101.344 116.948 101.453 116.864C101.562 116.779 101.696 116.733 101.834 116.733C101.971 116.733 102.105 116.779 102.214 116.864C102.323 116.948 102.4 117.067 102.434 117.201L111.544 153.339C111.576 153.435 111.584 153.537 111.567 153.636C111.55 153.736 111.51 153.83 111.449 153.911C111.388 153.991 111.308 154.055 111.216 154.098C111.125 154.14 111.025 154.16 110.924 154.155H92.3556C92.1809 154.149 92.0155 154.075 91.8958 153.947C91.7761 153.819 91.7118 153.649 91.7171 153.474C91.7183 153.429 91.7244 153.383 91.7353 153.339Z" fill="#B5BB9C"/>
<path opacity="0.8" d="M131.083 89.5727L137.479 65.2087C137.506 65.1218 137.56 65.0457 137.633 64.9918C137.707 64.9378 137.795 64.9087 137.886 64.9087C137.977 64.9087 138.065 64.9378 138.139 64.9918C138.212 65.0457 138.266 65.1218 138.293 65.2087L144.457 89.5727C144.467 89.6331 144.465 89.6949 144.452 89.7546C144.438 89.8144 144.413 89.8709 144.378 89.9209C144.343 89.9709 144.298 90.0135 144.246 90.0461C144.195 90.0788 144.137 90.1009 144.077 90.1113L144.03 90.1167H131.509C131.396 90.121 131.286 90.0802 131.203 90.0032C131.12 89.9261 131.071 89.8193 131.067 89.706C131.065 89.661 131.07 89.616 131.083 89.5727Z" fill="#B5BB9C"/>
<path opacity="0.8" d="M111.235 125.4L120.732 89.2619C120.766 89.1282 120.844 89.0097 120.953 88.925C121.061 88.8404 121.195 88.7944 121.333 88.7944C121.471 88.7944 121.604 88.8404 121.713 88.925C121.822 89.0097 121.9 89.1282 121.934 89.2619L131.044 125.4C131.068 125.493 131.07 125.591 131.05 125.686C131.029 125.78 130.988 125.869 130.927 125.944C130.867 126.019 130.79 126.08 130.703 126.12C130.615 126.161 130.52 126.18 130.423 126.177H111.855C111.759 126.18 111.663 126.161 111.575 126.12C111.488 126.08 111.411 126.019 111.351 125.944C111.291 125.869 111.249 125.78 111.229 125.686C111.208 125.591 111.21 125.493 111.235 125.4Z" fill="#B5BB9C"/>
<path opacity="0.8" d="M148.952 138.145L158.45 102.007C158.484 101.874 158.561 101.755 158.67 101.671C158.779 101.586 158.913 101.54 159.05 101.54C159.188 101.54 159.322 101.586 159.431 101.671C159.54 101.755 159.617 101.874 159.651 102.007L168.761 138.145C168.793 138.241 168.8 138.344 168.784 138.443C168.767 138.543 168.727 138.637 168.665 138.717C168.604 138.798 168.525 138.862 168.433 138.904C168.342 138.947 168.241 138.967 168.141 138.961H149.611C149.436 138.966 149.267 138.902 149.14 138.781C149.013 138.661 148.939 138.495 148.934 138.32C148.932 138.261 148.938 138.202 148.952 138.145Z" fill="#B5BB9C"/>
<path opacity="0.8" d="M422.518 347.862L431.976 311.724C432.011 311.59 432.088 311.472 432.197 311.387C432.306 311.303 432.439 311.257 432.577 311.257C432.715 311.257 432.849 311.303 432.958 311.387C433.066 311.472 433.144 311.59 433.178 311.724L442.288 347.862C442.312 347.956 442.314 348.053 442.294 348.148C442.274 348.242 442.232 348.331 442.172 348.406C442.111 348.482 442.035 348.542 441.947 348.582C441.86 348.623 441.764 348.642 441.668 348.639H423.099C422.935 348.634 422.779 348.564 422.666 348.444C422.554 348.324 422.493 348.164 422.498 347.999C422.5 347.953 422.506 347.907 422.518 347.862Z" fill="#B5BB9C"/>
<path opacity="0.8" d="M274.397 114.092L283.894 77.9541C283.928 77.8204 284.006 77.7018 284.114 77.6172C284.223 77.5325 284.357 77.4866 284.495 77.4866C284.633 77.4866 284.766 77.5325 284.875 77.6172C284.984 77.7018 285.061 77.8204 285.096 77.9541L294.205 114.092C294.237 114.188 294.245 114.29 294.228 114.39C294.212 114.49 294.171 114.584 294.11 114.664C294.049 114.744 293.969 114.809 293.878 114.851C293.786 114.894 293.686 114.913 293.585 114.908H275.017C274.916 114.913 274.816 114.894 274.724 114.851C274.633 114.809 274.553 114.744 274.492 114.664C274.431 114.584 274.39 114.49 274.374 114.39C274.357 114.29 274.365 114.188 274.397 114.092Z" fill="#B5BB9C"/>
<path opacity="0.8" d="M260.865 164.841L270.324 128.703C270.37 128.575 270.454 128.464 270.565 128.386C270.676 128.307 270.809 128.265 270.944 128.265C271.08 128.265 271.212 128.307 271.323 128.386C271.435 128.464 271.519 128.575 271.565 128.703L280.674 164.841C280.698 164.934 280.701 165.032 280.68 165.127C280.66 165.221 280.618 165.309 280.558 165.385C280.498 165.46 280.421 165.521 280.334 165.561C280.246 165.601 280.15 165.621 280.054 165.618H261.447C261.354 165.615 261.263 165.591 261.18 165.548C261.097 165.505 261.026 165.444 260.97 165.369C260.914 165.295 260.876 165.209 260.857 165.117C260.839 165.025 260.842 164.931 260.865 164.841Z" fill="#B5BB9C"/>
<path opacity="0.8" d="M60.6493 286.039L69.5265 252.038C69.5705 251.919 69.6499 251.817 69.7538 251.744C69.8578 251.672 69.9813 251.633 70.1079 251.633C70.2346 251.633 70.3581 251.672 70.4621 251.744C70.566 251.817 70.6454 251.919 70.6894 252.038L79.2177 285.961C79.2589 286.11 79.2393 286.27 79.1634 286.404C79.0874 286.539 78.9612 286.637 78.8126 286.679C78.7677 286.691 78.7215 286.698 78.675 286.7H61.192C61.0481 286.703 60.9088 286.649 60.8047 286.549C60.7006 286.45 60.6403 286.313 60.6369 286.168C60.6358 286.125 60.6399 286.081 60.6493 286.039Z" fill="#B5BB9C"/>
<path opacity="0.8" d="M55.4521 184.347L63.2051 154.893C63.2051 154.743 63.2643 154.6 63.3697 154.494C63.4751 154.389 63.6181 154.329 63.7672 154.329C63.9162 154.329 64.0592 154.389 64.1646 154.494C64.27 154.6 64.3293 154.743 64.3293 154.893L71.7334 184.347C71.7512 184.423 71.7515 184.501 71.7344 184.577C71.7172 184.652 71.6829 184.723 71.6342 184.783C71.5855 184.843 71.5236 184.891 71.4535 184.923C71.3833 184.955 71.3066 184.971 71.2294 184.969H56.1111C56.0229 185.002 55.9271 185.01 55.8347 184.992C55.7423 184.973 55.6569 184.929 55.5882 184.864C55.5196 184.799 55.4705 184.717 55.4464 184.625C55.4223 184.534 55.4243 184.438 55.4521 184.347Z" fill="#B5BB9C"/>
<path opacity="0.8" d="M117.67 351.942L126.586 318.019C126.618 317.895 126.691 317.785 126.793 317.706C126.895 317.628 127.019 317.585 127.148 317.585C127.276 317.585 127.401 317.628 127.502 317.706C127.604 317.785 127.677 317.895 127.71 318.019L136.277 351.942C136.301 352.03 136.305 352.123 136.287 352.213C136.269 352.303 136.23 352.387 136.173 352.459C136.116 352.531 136.044 352.589 135.961 352.627C135.878 352.666 135.787 352.684 135.695 352.68H118.251C118.175 352.683 118.099 352.671 118.027 352.644C117.956 352.618 117.89 352.577 117.834 352.525C117.778 352.473 117.733 352.41 117.701 352.341C117.669 352.271 117.652 352.196 117.649 352.119C117.647 352.06 117.654 352 117.67 351.942Z" fill="#B5BB9C"/>
<path opacity="0.8" d="M90.3012 339.313L99.2172 305.39C99.2172 305.236 99.2784 305.088 99.3875 304.978C99.4965 304.869 99.6444 304.807 99.7987 304.807C99.9529 304.807 100.101 304.869 100.21 304.978C100.319 305.088 100.38 305.236 100.38 305.39L108.908 339.313C108.95 339.462 108.93 339.622 108.854 339.756C108.778 339.891 108.652 339.989 108.503 340.031C108.458 340.043 108.412 340.05 108.366 340.052H90.9215C90.827 340.062 90.7315 340.048 90.6434 340.013C90.5553 339.977 90.4772 339.92 90.416 339.848C90.3548 339.775 90.3123 339.688 90.2923 339.595C90.2723 339.502 90.2754 339.405 90.3012 339.313Z" fill="#B5BB9C"/>
<path opacity="0.8" d="M102.007 375.451L110.845 341.412C110.845 341.257 110.907 341.109 111.016 341C111.125 340.89 111.273 340.829 111.427 340.829C111.581 340.829 111.729 340.89 111.838 341C111.947 341.109 112.008 341.257 112.008 341.412L120.537 375.335C120.569 375.42 120.58 375.512 120.568 375.603C120.556 375.693 120.521 375.78 120.467 375.853C120.413 375.927 120.341 375.985 120.259 376.024C120.176 376.062 120.085 376.079 119.994 376.073H102.55C102.396 376.063 102.252 375.992 102.151 375.876C102.049 375.76 101.997 375.608 102.007 375.454V375.451Z" fill="#B5BB9C"/>
<path opacity="0.8" d="M408.987 319.496L416.972 289.148C416.972 289.014 417.025 288.885 417.12 288.79C417.214 288.696 417.342 288.642 417.476 288.642C417.61 288.642 417.738 288.696 417.832 288.79C417.927 288.885 417.98 289.014 417.98 289.148L425.733 319.496C425.748 319.566 425.75 319.638 425.737 319.708C425.725 319.778 425.699 319.846 425.66 319.906C425.622 319.966 425.572 320.018 425.513 320.059C425.455 320.1 425.389 320.129 425.319 320.144C425.277 320.153 425.234 320.157 425.19 320.156H409.684C409.591 320.188 409.491 320.194 409.394 320.173C409.298 320.152 409.209 320.105 409.137 320.037C409.065 319.969 409.013 319.883 408.987 319.787C408.96 319.692 408.96 319.591 408.987 319.496Z" fill="#B5BB9C"/>
<path opacity="0.8" d="M384.605 402.73L376.852 433.816C381.71 430.008 386.375 426.005 390.846 421.809L385.845 402.73C385.845 402.565 385.78 402.406 385.663 402.29C385.547 402.173 385.389 402.108 385.225 402.108C385.06 402.108 384.903 402.173 384.786 402.29C384.67 402.406 384.605 402.565 384.605 402.73Z" fill="#B5BB9C"/>
<path opacity="0.8" d="M446.94 291.479C446.909 291.374 446.846 291.281 446.758 291.215C446.671 291.149 446.564 291.113 446.455 291.113C446.345 291.113 446.239 291.149 446.151 291.215C446.064 291.281 446 291.374 445.97 291.479L438.799 320.001C438.768 320.131 438.79 320.269 438.86 320.383C438.93 320.497 439.042 320.578 439.172 320.61L439.264 320.623H452.832C453.142 319.574 453.452 318.486 453.723 317.398L446.94 291.479Z" fill="#B5BB9C"/>
<path opacity="0.8" d="M47.1169 337.526L38.5886 303.603C38.5445 303.484 38.4652 303.381 38.3613 303.309C38.2573 303.236 38.1337 303.198 38.0071 303.198C37.8805 303.198 37.7569 303.236 37.653 303.309C37.549 303.381 37.4697 303.484 37.4257 303.603L29.0137 335.661L30.0603 338.264H46.5742C46.6651 338.27 46.7562 338.253 46.8389 338.215C46.9216 338.177 46.9933 338.118 47.0473 338.044C47.1014 337.971 47.1361 337.885 47.1483 337.794C47.1605 337.703 47.1497 337.611 47.1169 337.526Z" fill="#B5BB9C"/>
<path opacity="0.8" d="M399.527 367.68L390.069 403.818C390.045 403.908 390.043 404.003 390.061 404.094C390.079 404.186 390.117 404.272 390.173 404.347C390.229 404.421 390.301 404.482 390.383 404.525C390.466 404.568 390.557 404.592 390.65 404.595H407.241C407.978 403.779 408.714 402.963 409.412 402.108L400.729 367.68C400.695 367.546 400.617 367.428 400.508 367.343C400.4 367.258 400.266 367.212 400.128 367.212C399.99 367.212 399.857 367.258 399.748 367.343C399.639 367.428 399.561 367.546 399.527 367.68Z" fill="#B5BB9C"/>
<path opacity="0.8" d="M59.4076 328.628L68.2073 294.782C68.2073 294.628 68.2685 294.479 68.3776 294.37C68.4866 294.261 68.6345 294.199 68.7887 294.199C68.943 294.199 69.0909 294.261 69.1999 294.37C69.309 294.479 69.3702 294.628 69.3702 294.782L77.8985 328.705C77.9229 328.794 77.9263 328.886 77.9082 328.976C77.8902 329.066 77.8512 329.15 77.7946 329.222C77.7379 329.294 77.6652 329.352 77.5822 329.39C77.4992 329.429 77.4084 329.447 77.317 329.444H59.8728C59.7821 329.433 59.6951 329.402 59.6189 329.351C59.5427 329.301 59.4793 329.233 59.434 329.154C59.3887 329.074 59.3627 328.985 59.3582 328.894C59.3536 328.802 59.3705 328.711 59.4076 328.628Z" fill="#B5BB9C"/>
<path opacity="0.8" d="M70.2182 211.509C70.2246 209.227 69.3814 207.024 67.8535 205.331C68.5818 205.189 69.2541 204.84 69.7907 204.327C70.3272 203.813 70.7055 203.156 70.8806 202.434C71.0557 201.711 71.0203 200.953 70.7785 200.25C70.5367 199.547 70.0987 198.928 69.5165 198.467C68.9343 198.006 68.2324 197.722 67.4941 197.649C66.7558 197.576 66.0121 197.717 65.3514 198.055C64.6906 198.393 64.1404 198.915 63.7663 199.557C63.3921 200.199 63.2096 200.935 63.2405 201.678C63.2002 201.975 63.2002 202.275 63.2405 202.572C62.4686 202.368 61.674 202.264 60.8758 202.261C60.1971 202.26 59.5206 202.338 58.8601 202.494V202.261C58.8577 200.876 58.4582 199.52 57.7091 198.356C56.96 197.191 55.8928 196.268 54.6347 195.694C55.4247 194.702 55.8492 193.466 55.8364 192.197C55.8372 191.22 55.5864 190.26 55.1084 189.409C54.6305 188.558 53.9415 187.845 53.1081 187.339C52.2747 186.834 51.3252 186.552 50.3515 186.522C49.3777 186.492 48.4127 186.714 47.5498 187.167C46.6869 187.621 45.9553 188.289 45.4258 189.109C44.8964 189.929 44.587 190.872 44.5276 191.847C44.4682 192.821 44.6608 193.795 45.0868 194.673C45.5128 195.551 46.1577 196.305 46.9592 196.86C46.1904 197.533 45.5745 198.363 45.1532 199.295C44.7318 200.226 44.5149 201.238 44.517 202.261C44.5162 203.108 44.6605 203.95 44.9435 204.748C43.9796 205.099 43.1465 205.738 42.5572 206.579C41.9678 207.42 41.6505 208.422 41.6484 209.45C41.6516 210.411 41.9263 211.352 42.4408 212.164C42.9554 212.975 43.6887 213.624 44.5558 214.035C44.8629 215.709 45.7437 217.223 47.046 218.316C48.3483 219.409 49.9903 220.011 51.6886 220.019C53.0556 220.018 54.3964 219.642 55.565 218.931C57.1216 220.094 59.0119 220.721 60.9534 220.719C62.1599 220.729 63.3566 220.501 64.4751 220.047C65.5937 219.594 66.6122 218.924 67.4726 218.076C68.3329 217.228 69.0182 216.219 69.4893 215.105C69.9604 213.992 70.208 212.796 70.2182 211.587V211.509Z" fill="#898D78"/>
<path opacity="0.8" d="M287.032 363.25C287.047 361.928 286.802 360.616 286.312 359.39C285.822 358.163 285.095 357.044 284.173 356.099C283.252 355.154 282.154 354.399 280.941 353.88C279.729 353.36 278.426 353.084 277.108 353.069H276.991C275.991 353.066 274.996 353.223 274.045 353.535V353.069C274.038 351.989 273.787 350.924 273.31 349.955C272.833 348.985 272.144 348.137 271.293 347.474C273.049 345.599 274.032 343.128 274.045 340.557C274.037 338.684 273.5 336.851 272.495 335.272C274.622 334.692 276.499 333.427 277.837 331.671C279.175 329.915 279.9 327.767 279.899 325.558C279.907 324.119 279.602 322.696 279.007 321.388C278.411 320.079 277.538 318.917 276.449 317.98C277.54 317.035 278.415 315.866 279.015 314.552C279.615 313.238 279.926 311.809 279.926 310.364C279.926 308.919 279.615 307.49 279.015 306.176C278.415 304.862 277.54 303.693 276.449 302.748C277.956 301.384 279.017 299.597 279.493 297.618C279.97 295.64 279.839 293.564 279.118 291.662C278.398 289.759 277.121 288.119 275.455 286.957C273.789 285.794 271.811 285.163 269.781 285.145C269.356 285.107 268.928 285.107 268.502 285.145C269.345 283.624 269.786 281.912 269.781 280.171C269.781 277.502 268.723 274.942 266.841 273.055C264.958 271.168 262.404 270.107 259.741 270.107C257.078 270.107 254.525 271.168 252.642 273.055C250.759 274.942 249.701 277.502 249.701 280.171H248.887C247.348 280.162 245.827 280.508 244.442 281.182C243.058 281.855 241.846 282.839 240.901 284.057C239.46 282.127 237.372 280.784 235.02 280.277C232.669 279.77 230.214 280.133 228.109 281.298C227.725 278.789 226.408 276.517 224.424 274.94C222.439 273.362 219.933 272.595 217.408 272.791C214.882 272.988 212.524 274.134 210.807 276C209.089 277.866 208.138 280.314 208.145 282.853V283.086C207.445 282.927 206.73 282.849 206.013 282.853C203.628 282.749 201.285 283.503 199.407 284.979C197.529 286.455 196.239 288.556 195.771 290.902C195.303 293.248 195.687 295.685 196.854 297.772C198.022 299.859 199.895 301.458 202.136 302.282C201.084 303.929 200.519 305.843 200.508 307.799C200.526 309.304 200.884 310.786 201.555 312.132C202.227 313.478 203.194 314.654 204.385 315.571C202.005 316.008 199.861 317.289 198.345 319.179C196.829 321.07 196.042 323.444 196.128 325.868C193.465 325.868 190.911 326.929 189.028 328.816C187.146 330.704 186.088 333.264 186.088 335.933C186.091 337.866 186.657 339.757 187.716 341.373C185.452 342.12 183.527 343.651 182.285 345.691C181.044 347.731 180.567 350.147 180.94 352.507C181.313 354.867 182.512 357.017 184.321 358.572C186.131 360.127 188.433 360.987 190.817 360.996H191.786C192.591 362.727 193.872 364.191 195.479 365.217C197.086 366.243 198.952 366.787 200.857 366.786H201.865C201.195 368.138 200.85 369.628 200.857 371.138C200.863 373.108 201.427 375.035 202.485 376.695C201.173 377.618 200.103 378.846 199.367 380.273C198.631 381.701 198.251 383.287 198.26 384.894C198.265 387.202 199.06 389.438 200.514 391.228C201.968 393.018 203.992 394.253 206.246 394.725C206.423 396.589 207.118 398.367 208.251 399.856C209.385 401.344 210.912 402.485 212.659 403.149C214.407 403.812 216.304 403.971 218.137 403.609C219.97 403.246 221.666 402.376 223.031 401.098C224.442 402.919 226.435 404.2 228.676 404.725C230.916 405.25 233.269 404.988 235.34 403.982C237.41 402.976 239.073 401.287 240.051 399.199C241.028 397.111 241.26 394.749 240.708 392.51C242.059 393.302 243.597 393.719 245.162 393.72C246.728 393.721 248.266 393.305 249.618 392.514C250.971 391.723 252.09 390.587 252.86 389.221C253.631 387.855 254.025 386.308 254.004 384.738C254.039 383.397 253.76 382.066 253.19 380.853H254.004C256.12 380.864 258.185 380.197 259.896 378.949C259.892 380.78 260.318 382.587 261.14 384.222C261.963 385.858 263.158 387.276 264.629 388.362C266.1 389.448 267.806 390.172 269.608 390.474C271.41 390.776 273.258 390.648 275.001 390.101C276.745 389.553 278.335 388.602 279.644 387.323C280.952 386.045 281.941 384.475 282.532 382.742C283.122 381.009 283.296 379.16 283.041 377.347C282.786 375.533 282.108 373.806 281.062 372.304C282.813 371.52 284.305 370.252 285.362 368.649C286.42 367.045 286.999 365.172 287.032 363.25Z" fill="#898D78"/>
<path opacity="0.8" d="M192.795 395.075H192.252C191.733 393.299 190.734 391.703 189.366 390.461C187.997 389.22 186.313 388.382 184.499 388.041C184.902 386.933 185.112 385.763 185.119 384.583V384.35C186.859 383.993 188.473 383.181 189.798 381.995C191.122 380.809 192.109 379.292 192.657 377.599C193.206 375.907 193.297 374.098 192.921 372.359C192.545 370.619 191.716 369.01 190.517 367.697C189.319 366.384 187.794 365.412 186.099 364.882C184.404 364.352 182.599 364.282 180.868 364.679C179.137 365.076 177.542 365.926 176.246 367.143C174.95 368.36 173.999 369.899 173.49 371.604C172.506 370.189 171.177 369.051 169.628 368.299C168.08 367.547 166.364 367.206 164.647 367.31C162.929 367.414 161.267 367.959 159.82 368.892C158.373 369.825 157.189 371.115 156.383 372.638C155.576 374.162 155.173 375.868 155.214 377.592C155.254 379.316 155.736 381.001 156.613 382.485C157.489 383.969 158.732 385.202 160.221 386.066C161.71 386.93 163.396 387.396 165.117 387.42H165.504C166.03 389.25 167.063 390.894 168.483 392.16C169.903 393.426 171.653 394.261 173.529 394.569C173.122 395.664 172.912 396.821 172.908 397.989C172.908 400.658 173.966 403.218 175.849 405.105C177.732 406.993 180.286 408.053 182.949 408.053C184.283 408.048 185.602 407.77 186.825 407.237C187.523 408.188 188.434 408.961 189.484 409.494C190.534 410.027 191.695 410.305 192.872 410.307C194.003 410.552 195.175 410.539 196.3 410.271C197.426 410.003 198.477 409.486 199.377 408.757C200.278 408.029 201.004 407.108 201.503 406.061C202.002 405.015 202.261 403.87 202.261 402.71C202.261 401.55 202.002 400.405 201.503 399.359C201.004 398.313 200.278 397.391 199.377 396.663C198.477 395.934 197.426 395.417 196.3 395.149C195.175 394.881 194.003 394.869 192.872 395.113L192.795 395.075Z" fill="#898D78"/>
<path opacity="0.8" d="M359.601 146.111C358.424 146.119 357.257 146.329 356.151 146.733C355.533 145.103 354.501 143.664 353.158 142.556C351.814 141.448 350.206 140.711 348.492 140.417C346.777 140.122 345.016 140.281 343.382 140.878C341.747 141.475 340.296 142.488 339.172 143.819C338.46 142.38 337.414 141.134 336.123 140.184C334.831 139.233 333.332 138.606 331.75 138.355C330.168 138.104 328.548 138.236 327.027 138.741C325.507 139.245 324.128 140.107 323.007 141.254C321.713 138.958 319.591 137.248 317.076 136.474C317.095 136.332 317.095 136.189 317.076 136.047C317.124 133.686 316.342 131.383 314.867 129.541C313.392 127.699 311.318 126.437 309.007 125.973C306.697 125.51 304.298 125.876 302.229 127.007C300.161 128.139 298.556 129.963 297.694 132.161C297.333 132.123 296.969 132.123 296.608 132.161C294.963 132.161 293.386 132.816 292.223 133.982C291.059 135.148 290.406 136.729 290.406 138.378C290.368 138.779 290.368 139.182 290.406 139.583H290.057C288.202 139.509 286.391 140.164 285.01 141.407C283.629 142.65 282.785 144.385 282.659 146.241C282.533 148.098 283.134 149.931 284.334 151.35C285.535 152.77 287.24 153.665 289.088 153.844C287.815 155.314 286.997 157.123 286.733 159.051C286.469 160.979 286.771 162.943 287.601 164.702C288.431 166.461 289.754 167.94 291.409 168.958C293.063 169.977 294.978 170.49 296.918 170.436C298.737 170.45 300.523 169.951 302.074 168.999C302.292 171.565 303.483 173.949 305.401 175.662C307.32 177.375 309.821 178.285 312.389 178.205C314.957 178.125 317.396 177.062 319.206 175.234C321.015 173.405 322.057 170.951 322.116 168.377C322.154 167.963 322.154 167.547 322.116 167.133C324.436 168.417 327.169 168.729 329.718 168.001C332.267 167.273 334.425 165.564 335.722 163.248C336.797 164.297 338.094 165.091 339.517 165.57C340.94 166.049 342.452 166.201 343.941 166.014C345.431 165.827 346.859 165.307 348.12 164.492C349.382 163.677 350.444 162.587 351.228 161.305C352.125 162.822 353.403 164.076 354.935 164.942C356.467 165.808 358.2 166.255 359.959 166.239C361.718 166.223 363.441 165.744 364.958 164.85C366.474 163.955 367.729 162.678 368.597 161.144C369.466 159.611 369.917 157.876 369.906 156.113C369.895 154.35 369.422 152.62 368.535 151.098C367.648 149.575 366.377 148.313 364.85 147.438C363.323 146.563 361.593 146.105 359.834 146.111H359.601Z" fill="#898D78"/>
<path opacity="0.8" d="M326.688 133.871C327.7 133.872 328.696 133.611 329.578 133.115C330.461 132.618 331.201 131.901 331.727 131.034C332.386 132.102 333.367 132.931 334.527 133.402C335.688 133.873 336.968 133.961 338.182 133.653C339.396 133.346 340.48 132.659 341.278 131.692C342.076 130.725 342.546 129.528 342.62 128.275H343.512C345.604 128.275 347.611 127.442 349.09 125.959C350.569 124.476 351.401 122.465 351.401 120.368C351.401 118.271 350.569 116.259 349.09 114.776C347.611 113.293 345.604 112.46 343.512 112.46C342.159 112.468 340.832 112.831 339.662 113.513C338.492 114.195 337.521 115.171 336.844 116.346C336.054 115.448 335.01 114.811 333.85 114.522C332.69 114.232 331.47 114.303 330.352 114.724C329.233 115.146 328.269 115.898 327.587 116.882C326.905 117.866 326.537 119.034 326.533 120.232C326.535 120.892 326.64 121.547 326.843 122.175C326 122.036 325.137 122.083 324.314 122.312C323.49 122.542 322.727 122.947 322.076 123.502C321.424 124.056 320.901 124.746 320.543 125.524C320.184 126.301 319.998 127.147 319.998 128.003C319.998 128.86 320.184 129.706 320.543 130.483C320.901 131.261 321.424 131.95 322.076 132.505C322.727 133.059 323.49 133.465 324.314 133.694C325.137 133.924 326 133.971 326.843 133.832L326.688 133.871Z" fill="#898D78"/>
<path opacity="0.8" d="M351.385 138.223C354.168 138.223 356.425 135.961 356.425 133.171C356.425 130.381 354.168 128.12 351.385 128.12C348.602 128.12 346.346 130.381 346.346 133.171C346.346 135.961 348.602 138.223 351.385 138.223Z" fill="#898D78"/>
<path opacity="0.8" d="M290.365 230.433C290.355 227.255 289.088 224.211 286.843 221.968C284.598 219.724 281.557 218.465 278.386 218.465C277.257 218.47 276.134 218.64 275.053 218.97C274.953 216.375 273.856 213.92 271.992 212.117C270.129 210.314 267.642 209.302 265.051 209.294C264.174 209.29 263.3 209.408 262.454 209.644V209.294C262.449 207.441 261.934 205.626 260.965 204.048C259.997 202.47 258.613 201.191 256.965 200.351C255.317 199.511 253.471 199.143 251.628 199.288C249.785 199.433 248.018 200.086 246.522 201.173C245.894 199.829 244.978 198.641 243.839 197.694C242.699 196.747 241.365 196.064 239.932 195.694C241.456 193.892 242.294 191.606 242.296 189.244C242.302 188.021 242.079 186.808 241.637 185.669C243.028 186.214 244.522 186.441 246.011 186.334C247.501 186.227 248.947 185.789 250.246 185.051C251.545 184.313 252.663 183.293 253.52 182.067C254.376 180.841 254.948 179.439 255.196 177.963C255.443 176.487 255.359 174.975 254.95 173.535C254.54 172.096 253.815 170.766 252.828 169.643C251.842 168.52 250.617 167.632 249.245 167.043C247.872 166.454 246.385 166.18 244.894 166.24H244.583C244.789 165.413 244.893 164.565 244.894 163.714C244.915 161.715 244.345 159.754 243.255 158.08C242.164 156.406 240.603 155.094 238.769 154.31V153.494C238.769 150.825 237.711 148.265 235.828 146.378C233.945 144.49 231.391 143.43 228.729 143.43C226.066 143.43 223.512 144.49 221.629 146.378C219.746 148.265 218.688 150.825 218.688 153.494C218.689 154.346 218.793 155.194 218.999 156.02H218.688C216.305 156.016 213.998 156.862 212.18 158.407C210.362 159.952 209.151 162.095 208.765 164.452C207.444 163.826 206.001 163.501 204.539 163.501C203.078 163.501 201.635 163.826 200.314 164.452C201.585 162.679 202.246 160.54 202.198 158.357C202.149 156.175 201.395 154.067 200.047 152.352C198.699 150.637 196.832 149.408 194.726 148.85C192.621 148.292 190.391 148.435 188.374 149.259C188.204 147.686 187.666 146.175 186.804 144.85C185.942 143.524 184.78 142.421 183.413 141.63C182.046 140.839 180.512 140.382 178.936 140.296C177.36 140.211 175.786 140.499 174.341 141.137C174.362 140.853 174.362 140.567 174.341 140.282C174.346 138.966 174.093 137.661 173.595 136.443C173.097 135.225 172.365 134.117 171.44 133.182C170.514 132.247 169.415 131.505 168.203 130.996C166.992 130.488 165.692 130.223 164.379 130.218H164.301C162.964 130.232 161.644 130.523 160.425 131.073V130.218C160.473 127.857 159.691 125.554 158.216 123.712C156.74 121.871 154.666 120.608 152.356 120.145C150.045 119.681 147.646 120.048 145.578 121.179C143.51 122.31 141.904 124.134 141.042 126.332C140.095 125.285 138.94 124.447 137.652 123.872C136.364 123.297 134.971 122.997 133.561 122.991C131.748 122.978 129.966 123.458 128.404 124.379C126.841 125.3 125.557 126.628 124.686 128.221C123.816 129.815 123.392 131.615 123.46 133.431C123.528 135.246 124.084 137.01 125.071 138.534C123.106 138.992 121.331 140.051 119.993 141.565C119.698 140.438 119.136 139.4 118.354 138.538C117.573 137.676 116.595 137.017 115.504 136.615C114.414 136.214 113.242 136.082 112.09 136.232C110.938 136.382 109.839 136.809 108.887 137.477C107.935 138.144 107.158 139.032 106.622 140.066C106.086 141.099 105.807 142.247 105.809 143.412C105.811 144.576 106.093 145.723 106.633 146.755C107.172 147.786 107.952 148.672 108.906 149.336C107.868 150.42 107.084 151.723 106.614 153.15C106.143 154.577 105.997 156.091 106.187 157.582C106.376 159.073 106.897 160.502 107.709 161.765C108.522 163.027 109.607 164.092 110.883 164.88C110.414 166.04 110.177 167.281 110.185 168.532C110.146 169.088 110.146 169.647 110.185 170.203C108.869 169.562 107.424 169.23 105.96 169.232C103.621 169.229 101.356 170.047 99.557 171.545C97.7581 173.043 96.5398 175.126 96.1138 177.431C95.4796 177.274 94.8287 177.196 94.1755 177.198C93.0722 177.2 91.9803 177.421 90.9624 177.848C89.9446 178.274 89.0209 178.899 88.2445 179.684C88.1166 178.374 87.5589 177.144 86.6586 176.186C85.7584 175.227 84.5666 174.595 83.2697 174.389C81.9729 174.182 80.6443 174.413 79.492 175.044C78.3398 175.675 77.4289 176.672 76.9021 177.877C76.3754 179.083 76.2624 180.43 76.5809 181.707C76.8994 182.984 77.6315 184.119 78.6624 184.934C79.6933 185.749 80.9649 186.199 82.2779 186.212C83.591 186.226 84.8714 185.802 85.9186 185.008V185.474C85.9186 187.669 86.7885 189.775 88.337 191.327C89.8855 192.879 91.9857 193.751 94.1755 193.751C94.7943 193.811 95.4174 193.811 96.0362 193.751C96.25 195.298 96.8202 196.775 97.7016 198.063C98.583 199.351 99.7515 200.416 101.114 201.173C100.428 202.534 100.069 204.038 100.068 205.564C98.7774 204.591 97.2681 203.95 95.6727 203.7C94.0773 203.449 92.4449 203.595 90.9193 204.126C89.7798 202.257 88.0631 200.812 86.0297 200.009C83.9963 199.207 81.7573 199.091 79.6525 199.68C77.5477 200.269 75.6921 201.531 74.3673 203.273C73.0426 205.015 72.321 207.143 72.3121 209.333C72.318 210.816 72.6472 212.28 73.2766 213.623C73.9061 214.965 74.8205 216.154 75.956 217.105C74.2081 218.552 73.0048 220.553 72.5447 222.778C71.8328 222.385 71.0314 222.184 70.2188 222.195C69.4069 222.17 68.6019 222.352 67.8802 222.726C67.1585 223.1 66.5441 223.652 66.0951 224.331C65.6462 225.009 65.3776 225.792 65.315 226.604C65.2523 227.416 65.3976 228.23 65.7371 228.97C66.0766 229.709 66.599 230.35 67.2547 230.831C67.9105 231.311 68.6778 231.616 69.484 231.716C70.2902 231.816 71.1085 231.707 71.8613 231.401C72.614 231.095 73.2762 230.601 73.7852 229.967C74.6846 231.436 75.9439 232.65 77.4434 233.493C78.943 234.336 80.6328 234.781 82.3522 234.785C84.425 234.786 86.4456 234.133 88.1282 232.92C88.0673 233.54 88.0673 234.165 88.1282 234.785C88.1282 237.454 89.186 240.014 91.0689 241.902C92.9518 243.789 95.5055 244.849 98.1683 244.849C100.343 244.844 102.454 244.12 104.177 242.79C104.898 244.701 106.181 246.349 107.856 247.514C109.531 248.68 111.519 249.309 113.558 249.318C115.132 249.303 116.683 248.931 118.093 248.23C118.95 250.617 120.68 252.589 122.934 253.743C125.187 254.898 127.795 255.15 130.227 254.447C130.208 254.745 130.208 255.043 130.227 255.341C130.227 256.341 130.37 257.335 130.653 258.294C129.606 257.931 128.505 257.747 127.397 257.75C125.897 257.776 124.422 258.139 123.081 258.811C121.739 259.484 120.565 260.449 119.644 261.636C119.195 260.393 118.507 259.251 117.618 258.275C116.729 257.299 115.657 256.508 114.463 255.947C113.269 255.386 111.977 255.066 110.66 255.006C109.342 254.946 108.026 255.147 106.787 255.596C106.546 255.683 106.309 255.78 106.076 255.885C105.904 254.512 105.26 253.242 104.254 252.294C103.248 251.346 101.944 250.78 100.566 250.692C99.1882 250.605 97.8231 251.002 96.7061 251.815C95.589 252.628 94.7899 253.806 94.4465 255.147C93.8406 255.088 93.2304 255.088 92.6245 255.147C91.0784 255.153 89.554 255.512 88.1666 256.196V255.613C88.1666 254.406 87.8096 253.227 87.1409 252.224C86.4721 251.22 85.5216 250.438 84.4095 249.977C83.2974 249.515 82.0737 249.394 80.8931 249.63C79.7126 249.865 78.6281 250.446 77.777 251.299C76.9258 252.152 76.3462 253.239 76.1113 254.423C75.8765 255.606 75.997 256.833 76.4577 257.948C76.9183 259.062 77.6984 260.015 78.6992 260.686C79.7001 261.356 80.8768 261.714 82.0805 261.714H83.2047C82.7634 262.853 82.5399 264.066 82.5457 265.289C82.5531 267.527 83.3045 269.698 84.6809 271.46C86.0573 273.222 87.9803 274.474 90.1459 275.018C92.3115 275.561 94.5962 275.366 96.6387 274.463C98.6812 273.559 100.365 271.999 101.424 270.029V270.301C100.516 271.828 100.046 273.576 100.067 275.353C100.069 277.025 100.485 278.67 101.28 280.14C102.075 281.61 103.222 282.858 104.619 283.772C106.015 284.686 107.617 285.237 109.279 285.375C110.941 285.513 112.612 285.234 114.139 284.562C113.633 285.794 113.383 287.116 113.403 288.448C110.928 288.452 108.543 289.372 106.703 291.031C104.864 292.69 103.701 294.971 103.436 297.437C103.172 299.903 103.825 302.38 105.271 304.393C106.717 306.406 108.853 307.813 111.27 308.343C110.505 309.806 110.106 311.433 110.108 313.084C110.108 314.207 110.291 315.323 110.65 316.387C108.939 316.762 107.356 317.579 106.058 318.757C104.759 319.936 103.791 321.434 103.249 323.103C102.706 324.772 102.609 326.555 102.967 328.273C103.324 329.992 104.124 331.587 105.286 332.9C106.449 334.213 107.934 335.198 109.594 335.758C111.254 336.317 113.031 336.432 114.749 336.091C116.467 335.749 118.065 334.963 119.387 333.811C120.708 332.658 121.705 331.179 122.28 329.521C123.474 330.979 125.053 332.072 126.837 332.674C128.621 333.276 130.538 333.363 132.369 332.926C134.2 332.488 135.871 331.543 137.192 330.199C138.513 328.855 139.431 327.166 139.84 325.324C140.841 326.458 142.085 327.35 143.478 327.935C144.871 328.52 146.378 328.782 147.886 328.702C149.394 328.623 150.865 328.203 152.189 327.474C153.513 326.746 154.655 325.727 155.532 324.494C156.409 323.262 156.997 321.846 157.252 320.354C157.508 318.862 157.424 317.332 157.007 315.876C156.591 314.421 155.852 313.079 154.846 311.95C153.841 310.82 152.594 309.933 151.198 309.354C152.792 307.459 153.609 305.029 153.485 302.554C153.49 301.163 153.202 299.787 152.641 298.515C152.08 297.243 151.258 296.103 150.229 295.171C151.66 295.163 153.072 294.847 154.37 294.243C155.667 293.64 156.82 292.763 157.75 291.673C158.346 293.949 159.719 295.943 161.63 297.309C163.541 298.675 165.869 299.328 168.209 299.152C170.55 298.977 172.755 297.985 174.442 296.349C176.128 294.713 177.19 292.536 177.442 290.197H178.217C180.268 290.202 182.271 289.578 183.957 288.409C185.643 287.239 186.932 285.58 187.649 283.655C188.367 281.73 188.479 279.63 187.971 277.639C187.463 275.648 186.359 273.86 184.808 272.516C185.922 271.559 186.81 270.365 187.407 269.02C188.004 267.676 188.294 266.216 188.258 264.745C188.254 263.552 188.044 262.369 187.637 261.247H188.374C191.037 261.247 193.59 260.187 195.473 258.3C197.356 256.412 198.414 253.852 198.414 251.183C198.433 250.86 198.433 250.535 198.414 250.212C200.494 251.201 202.85 251.443 205.087 250.899C207.324 250.354 209.307 249.055 210.703 247.22C211.198 249.393 212.402 251.34 214.124 252.75C215.847 254.161 217.989 254.956 220.213 255.01C222.437 255.063 224.615 254.372 226.402 253.046C228.19 251.719 229.486 249.833 230.085 247.686C231.628 248.587 233.378 249.069 235.163 249.085C236.875 249.071 238.556 248.621 240.047 247.778C241.539 246.936 242.793 245.727 243.691 244.267C244.503 245.731 245.669 246.967 247.082 247.861C248.496 248.755 250.111 249.278 251.778 249.383C253.446 249.487 255.114 249.17 256.627 248.459C258.14 247.748 259.451 246.667 260.438 245.316C261.26 247.451 262.783 249.242 264.757 250.393C266.73 251.544 269.036 251.986 271.295 251.646C273.553 251.307 275.628 250.206 277.178 248.525C278.728 246.844 279.66 244.684 279.82 242.401C282.743 242.065 285.438 240.656 287.385 238.446C289.332 236.236 290.394 233.382 290.365 230.433Z" fill="#898D78"/>
<path opacity="0.8" d="M29.8709 207.507C31.3348 205.986 32.2837 204.041 32.5829 201.948C32.8821 199.856 32.5164 197.722 31.5378 195.85C33.2912 195.436 34.9013 194.557 36.1992 193.305C37.4971 192.053 38.4351 190.474 38.9148 188.733C39.3944 186.993 39.3981 185.155 38.9255 183.412C38.4528 181.67 37.5212 180.087 36.2283 178.83C37.9068 177.129 38.9262 174.885 39.1038 172.5C39.2814 170.114 38.6056 167.744 37.1975 165.812C39.6628 166.003 42.1124 165.282 44.0836 163.786C46.0549 162.289 47.4113 160.121 47.8966 157.691C50.0523 158.574 52.4472 158.679 54.6714 157.987C56.8956 157.295 58.8107 155.85 60.0887 153.898C61.3667 151.947 61.9282 149.61 61.6771 147.29C61.4259 144.969 60.3777 142.808 58.712 141.176C58.1874 140.682 57.6162 140.239 57.0063 139.855H57.2002C58.8261 138.156 59.8089 135.941 59.9788 133.592C60.1487 131.244 59.4949 128.91 58.1305 126.993C40.0091 151.911 27.2567 180.336 20.6836 210.46C22.3391 210.788 24.0507 210.689 25.6577 210.173C27.2646 209.656 28.7144 208.739 29.8709 207.507Z" fill="#898D78"/>
<path opacity="0.8" d="M155.232 59.7687C156.591 60.5308 158.074 61.044 159.613 61.2842C158.82 62.0447 158.206 62.9732 157.817 64.0018C157.428 65.0304 157.274 66.1332 157.364 67.2295C157.858 68.9345 158.919 70.4187 160.371 71.4352C161.823 72.4517 163.579 72.9392 165.346 72.8166C167.113 72.694 168.784 71.9686 170.083 70.7613C171.381 69.5539 172.228 67.9372 172.483 66.1803V65.7529C174.254 65.0922 175.801 63.9423 176.947 62.4362C178.093 60.9301 178.79 59.1295 178.956 57.243C180.074 57.5763 181.245 57.695 182.407 57.5927H182.678C183.185 59.2895 184.13 60.8222 185.417 62.0357C186.704 63.2493 188.288 64.1008 190.009 64.5042C191.73 64.9077 193.526 64.8487 195.217 64.3334C196.908 63.818 198.433 62.8645 199.638 61.5691C200.843 60.2738 201.686 58.6825 202.081 56.956C202.477 55.2295 202.41 53.4291 201.889 51.7365C201.368 50.0439 200.411 48.5192 199.113 47.3164C197.816 46.1135 196.225 45.2752 194.501 44.8861C196.432 43.2078 197.663 40.8641 197.951 38.3191C180.78 41.5073 164.046 46.7248 148.1 53.8623C148.797 54.0358 149.514 54.1143 150.232 54.0955C151.272 56.4603 153.019 58.4427 155.232 59.7687Z" fill="#898D78"/>
<path opacity="0.8" d="M453.373 230.783C453.386 233.006 454.129 235.163 455.489 236.919C456.849 238.675 458.748 239.933 460.893 240.497C460.389 234.241 459.692 228.063 458.684 221.962C457.085 222.813 455.747 224.083 454.812 225.636C453.876 227.19 453.379 228.968 453.373 230.783Z" fill="#898D78"/>
<path opacity="0.8" d="M456.166 256.118C454.88 256.117 453.626 256.517 452.576 257.262C451.527 258.007 450.735 259.061 450.309 260.277C449.883 261.493 449.845 262.812 450.2 264.051C450.555 265.29 451.285 266.388 452.29 267.193C451.522 268.107 451.097 269.262 451.088 270.457C451.076 271.43 451.344 272.386 451.861 273.21C452.378 274.034 453.121 274.691 454.002 275.101C454.882 275.512 455.862 275.659 456.824 275.524C457.785 275.389 458.688 274.979 459.423 274.343C459.894 274.615 460.387 274.849 460.896 275.042C461.283 269.952 461.516 264.822 461.555 259.499C461.058 258.49 460.291 257.639 459.339 257.042C458.388 256.445 457.289 256.125 456.166 256.118Z" fill="#898D78"/>
<path opacity="0.8" d="M287.034 468.789C287.034 466.119 285.976 463.559 284.093 461.672C282.21 459.785 279.656 458.724 276.993 458.724C276.426 458.684 275.856 458.684 275.288 458.724C276.41 457.062 277.005 455.098 276.993 453.09C277.003 451.22 276.479 449.386 275.482 447.805C277.655 446.92 279.461 445.316 280.599 443.259C280.998 443.297 281.401 443.297 281.8 443.259C284.011 443.264 286.161 442.534 287.915 441.185C289.668 439.835 290.926 437.94 291.491 435.798C293.009 436.785 294.765 437.343 296.572 437.413C298.38 437.482 300.173 437.061 301.762 436.193C303.351 435.325 304.676 434.043 305.597 432.482C306.519 430.922 307.003 429.141 306.997 427.327C307.001 425.759 306.629 424.213 305.912 422.819C307.239 423.108 308.611 423.122 309.944 422.861C311.277 422.601 312.543 422.071 313.665 421.304C314.18 422.064 314.882 422.677 315.704 423.084C316.525 423.491 317.437 423.678 318.352 423.627C319.267 423.576 320.153 423.289 320.925 422.793C321.696 422.297 322.326 421.61 322.754 420.798C323.182 419.985 323.393 419.076 323.366 418.158C323.34 417.24 323.077 416.344 322.603 415.558C322.129 414.772 321.46 414.123 320.661 413.672C319.863 413.222 318.962 412.986 318.045 412.988C318.041 410.917 317.399 408.897 316.206 407.204C315.014 405.512 313.33 404.23 311.384 403.533C309.437 402.836 307.324 402.758 305.331 403.309C303.339 403.861 301.566 405.016 300.252 406.616C299.095 405.189 297.565 404.112 295.833 403.507C296.477 402.336 296.848 401.034 296.919 399.699C296.91 398.545 296.672 397.405 296.219 396.344C295.767 395.284 295.108 394.324 294.283 393.521C295.232 393.192 296.073 392.608 296.712 391.832C297.352 391.056 297.766 390.118 297.909 389.122C298.053 388.125 297.919 387.109 297.523 386.183C297.128 385.258 296.486 384.46 295.667 383.876C294.849 383.293 293.886 382.947 292.884 382.876C291.882 382.805 290.88 383.012 289.988 383.475C289.096 383.937 288.349 384.637 287.827 385.497C287.306 386.358 287.031 387.346 287.034 388.352C287.047 389.336 287.314 390.3 287.809 391.15C285.632 391.279 283.586 392.235 282.087 393.823C280.589 395.412 279.752 397.513 279.746 399.699C279.761 400.353 279.839 401.003 279.978 401.642C279.015 401.327 278.007 401.169 276.993 401.176C275.412 401.183 273.855 401.563 272.448 402.285C271.04 403.008 269.822 404.052 268.892 405.333C267.776 403.79 266.244 402.597 264.476 401.895C262.708 401.194 260.777 401.011 258.91 401.37C257.042 401.729 255.316 402.614 253.932 403.922C252.549 405.229 251.566 406.905 251.098 408.753C249.657 407.264 247.789 406.262 245.754 405.886C243.718 405.51 241.616 405.778 239.74 406.655C239.76 406.344 239.76 406.032 239.74 405.722C239.74 403.956 239.277 402.222 238.397 400.692C237.517 399.163 236.25 397.892 234.725 397.009C233.2 396.125 231.47 395.659 229.709 395.657C227.947 395.656 226.216 396.119 224.69 397C223.164 397.881 221.895 399.149 221.012 400.677C220.129 402.205 219.663 403.939 219.66 405.705C219.657 407.47 220.118 409.206 220.995 410.737C221.873 412.267 223.137 413.54 224.661 414.426C223.794 415.38 223.11 416.487 222.645 417.69H222.219C219.412 417.835 216.777 419.091 214.894 421.182C213.011 423.273 212.035 426.029 212.178 428.842C211.74 428.805 211.299 428.805 210.86 428.842C208.27 428.861 205.788 429.882 203.931 431.692C202.075 433.503 200.988 435.962 200.898 438.557H200.394C197.825 438.55 195.353 439.539 193.494 441.316C192.988 438.997 191.681 436.932 189.803 435.485C187.926 434.039 185.599 433.304 183.233 433.411C180.867 433.518 178.616 434.46 176.876 436.07C175.135 437.68 174.019 439.854 173.724 442.21C172.057 440.191 169.671 438.903 167.072 438.62C164.473 438.337 161.867 439.081 159.807 440.694C159.204 438.32 157.759 436.248 155.741 434.866C153.723 433.484 151.271 432.887 148.846 433.188C146.421 433.488 144.188 434.665 142.566 436.497C140.944 438.33 140.045 440.693 140.037 443.142C140.052 444.033 140.169 444.92 140.386 445.785C138.245 446.271 136.324 447.453 134.922 449.146C133.52 450.84 132.715 452.95 132.633 455.149C165.193 472.803 201.637 482.019 238.655 481.961C252.967 481.949 267.245 480.57 281.296 477.842C283.01 477.033 284.459 475.752 285.474 474.149C286.49 472.546 287.031 470.687 287.034 468.789Z" fill="#898D78"/>
<path opacity="0.8" d="M369.836 427.133C370.553 425.725 370.925 424.167 370.922 422.586C370.917 421.136 370.599 419.705 369.991 418.39C372.373 418.314 374.651 417.391 376.416 415.786C378.182 414.181 379.32 411.999 379.628 409.63C379.936 407.261 379.392 404.859 378.096 402.855C376.799 400.85 374.833 399.373 372.55 398.689C372.908 397.651 373.092 396.561 373.092 395.463C373.077 392.979 372.153 390.587 370.495 388.741C371.041 388.437 371.56 388.086 372.046 387.692C372.425 388.816 373.055 389.839 373.889 390.681C374.724 391.523 375.739 392.162 376.858 392.55C377.977 392.938 379.17 393.064 380.345 392.918C381.52 392.772 382.646 392.358 383.636 391.708C384.627 391.058 385.456 390.19 386.06 389.169C386.664 388.148 387.026 387.002 387.12 385.819C387.214 384.636 387.036 383.448 386.6 382.344C386.164 381.241 385.482 380.252 384.606 379.454C386.358 377.577 387.341 375.108 387.358 372.537V372.226C388.051 372.429 388.768 372.533 389.49 372.537C391.232 372.513 392.907 371.86 394.208 370.699C395.51 369.538 396.35 367.945 396.576 366.214C396.802 364.482 396.398 362.727 395.439 361.269C394.479 359.811 393.028 358.749 391.351 358.276C392.043 356.143 392.007 353.839 391.249 351.729C390.491 349.618 389.054 347.82 387.164 346.619C389.004 345.856 390.576 344.562 391.68 342.901C392.785 341.241 393.372 339.289 393.367 337.293C393.384 335.81 393.07 334.341 392.446 332.996C391.822 331.651 390.904 330.464 389.761 329.521C390.811 328.419 391.593 327.089 392.049 325.635C394.171 325.033 396.037 323.746 397.356 321.974C398.676 320.202 399.377 318.043 399.351 315.832C399.324 313.62 398.572 311.479 397.21 309.74C395.848 308 393.952 306.758 391.816 306.206V305.896C391.816 303.226 390.758 300.666 388.875 298.779C386.992 296.892 384.439 295.831 381.776 295.831C380.512 295.832 379.26 296.083 378.093 296.57C376.911 294.751 375.173 293.364 373.14 292.616C371.107 291.868 368.887 291.799 366.811 292.42C364.735 293.04 362.916 294.317 361.624 296.059C360.331 297.802 359.636 299.916 359.641 302.087C359.641 303.062 359.785 304.031 360.067 304.963C358.622 305.272 357.264 305.9 356.09 306.8C354.917 307.701 353.958 308.852 353.284 310.17C352.688 307.74 351.226 305.612 349.175 304.186C351.117 303.498 352.8 302.225 353.993 300.542C355.186 298.859 355.832 296.847 355.842 294.782C355.899 294.175 355.899 293.563 355.842 292.956C357.551 292.38 359.075 291.355 360.255 289.989C361.434 288.622 362.226 286.963 362.548 285.184C364.667 285.123 366.707 284.373 368.363 283.047C369.178 284.778 370.468 286.241 372.08 287.266C373.693 288.291 375.563 288.836 377.473 288.837C378.419 288.834 379.36 288.69 380.264 288.409C380.988 290.302 382.269 291.93 383.938 293.075C385.607 294.22 387.584 294.829 389.606 294.821C389.602 297.49 390.655 300.052 392.535 301.942C394.415 303.833 396.967 304.898 399.63 304.902C402.293 304.906 404.848 303.85 406.734 301.966C408.62 300.082 409.682 297.524 409.687 294.854V294.821C409.686 293.847 409.542 292.878 409.26 291.946C409.973 292.102 410.701 292.18 411.431 292.179C412.526 292.178 413.614 291.994 414.648 291.635C414.649 293.053 415.087 294.437 415.903 295.596C416.719 296.755 417.872 297.633 419.205 298.11C420.538 298.587 421.985 298.638 423.348 298.258C424.712 297.878 425.925 297.085 426.821 295.987C427.458 296.679 428.239 297.222 429.109 297.577C429.979 297.932 430.916 298.09 431.854 298.041C432.793 297.992 433.708 297.737 434.537 297.293C435.365 296.849 436.086 296.228 436.648 295.473C437.209 294.718 437.598 293.849 437.787 292.926C437.976 292.004 437.959 291.051 437.739 290.136C437.519 289.22 437.1 288.365 436.513 287.63C435.926 286.895 435.184 286.299 434.341 285.884C435.635 284.127 436.34 282.005 436.357 279.822C436.356 278.809 436.213 277.802 435.93 276.83C437.771 276.064 439.346 274.771 440.456 273.112C441.567 271.453 442.163 269.502 442.172 267.504C442.172 265.437 441.536 263.42 440.349 261.73C439.163 260.04 437.484 258.758 435.543 258.061C436.296 257.531 436.911 256.828 437.337 256.009C437.762 255.191 437.984 254.282 437.985 253.36C437.985 251.814 437.372 250.331 436.282 249.238C435.191 248.145 433.712 247.531 432.17 247.531H431.434C431.072 245.152 429.872 242.982 428.052 241.413C426.231 239.845 423.91 238.982 421.51 238.982C419.976 238.97 418.46 239.315 417.081 239.989C415.702 240.663 414.498 241.648 413.563 242.868C411.869 240.897 409.555 239.565 407.003 239.092C404.452 238.618 401.815 239.032 399.53 240.264C399.223 238.492 398.445 236.835 397.278 235.468C396.112 234.1 394.6 233.073 392.901 232.493C393.308 231.358 393.517 230.162 393.522 228.957C393.516 226.725 392.77 224.559 391.402 222.799C390.034 221.039 388.121 219.784 385.964 219.232C383.807 218.681 381.528 218.863 379.486 219.751C377.444 220.639 375.754 222.183 374.682 224.138C373.747 223.155 372.622 222.372 371.376 221.838C370.13 221.303 368.788 221.028 367.433 221.03C367.511 220.345 367.511 219.654 367.433 218.97C367.455 216.554 366.585 214.215 364.991 212.403C366.51 211.181 367.736 209.631 368.575 207.868C369.414 206.105 369.845 204.175 369.836 202.222C369.877 201.601 369.877 200.978 369.836 200.357C370.613 199.746 371.242 198.968 371.678 198.08C372.114 197.192 372.346 196.217 372.356 195.228C372.356 193.497 371.67 191.836 370.448 190.612C369.227 189.388 367.571 188.7 365.843 188.7C364.979 188.706 364.124 188.877 363.324 189.205C363.324 187.659 362.711 186.177 361.621 185.083C360.53 183.99 359.051 183.376 357.509 183.376C355.967 183.376 354.488 183.99 353.397 185.083C352.307 186.177 351.694 187.659 351.694 189.205C351.673 189.451 351.673 189.698 351.694 189.943C349.963 190.689 348.406 191.787 347.12 193.168C346.526 193.128 345.931 193.128 345.337 193.168C344.898 193.131 344.457 193.131 344.019 193.168C343.594 191.998 342.833 190.979 341.834 190.239C340.834 189.499 339.638 189.072 338.397 189.009C337.156 188.947 335.924 189.253 334.855 189.889C333.787 190.526 332.929 191.463 332.389 192.586C331.412 192.273 330.392 192.116 329.366 192.119C326.779 192.117 324.292 193.12 322.427 194.917C321.533 193.568 320.328 192.455 318.913 191.673C317.498 190.89 315.916 190.462 314.301 190.423C312.686 190.385 311.085 190.738 309.635 191.452C308.185 192.166 306.928 193.221 305.972 194.526C305.015 195.831 304.387 197.348 304.14 198.949C303.894 200.549 304.036 202.186 304.556 203.72C305.075 205.253 305.956 206.639 307.123 207.758C308.291 208.877 309.711 209.698 311.262 210.149V210.771C311.262 212.915 312.112 214.971 313.624 216.486C315.136 218.002 317.187 218.854 319.326 218.854H319.364C320.543 218.856 321.708 218.596 322.774 218.092C323.84 217.588 324.78 216.853 325.528 215.939C325.713 218.475 326.846 220.848 328.7 222.584C330.554 224.32 332.992 225.291 335.529 225.304C337.997 225.298 340.375 224.369 342.197 222.701C342.196 223.703 342.411 224.693 342.825 225.605C343.24 226.517 343.845 227.328 344.6 227.985C343.68 229.124 343.018 230.45 342.662 231.871C340.836 229.929 338.316 228.794 335.655 228.714C332.995 228.634 330.411 229.617 328.473 231.446C326.535 233.275 325.401 235.801 325.32 238.468C325.239 241.135 326.218 243.725 328.042 245.669C328.218 245.856 328.401 246.036 328.59 246.21C327.445 246.889 326.444 247.786 325.644 248.852C323.946 248.838 322.272 249.259 320.782 250.075C319.292 250.891 318.034 252.076 317.129 253.517C316.224 254.957 315.702 256.606 315.611 258.306C315.521 260.006 315.865 261.701 316.612 263.229H316.186C314.219 263.22 312.294 263.792 310.651 264.874C309.007 265.955 307.718 267.499 306.944 269.311C306.171 271.123 305.947 273.123 306.302 275.062C306.656 277 307.572 278.791 308.937 280.21C307.83 280.898 306.871 281.798 306.112 282.858C305.354 283.918 304.812 285.118 304.517 286.389C303.062 284.59 301.03 283.351 298.767 282.884C296.504 282.417 294.149 282.749 292.103 283.825C290.057 284.901 288.445 286.654 287.543 288.786C286.64 290.918 286.501 293.298 287.151 295.52C285.481 296.708 284.214 298.379 283.519 300.309C282.824 302.239 282.733 304.336 283.261 306.319C283.788 308.302 284.907 310.076 286.469 311.403C288.03 312.73 289.959 313.547 291.996 313.745C291.977 314.107 291.977 314.471 291.996 314.833C291.993 315.539 292.071 316.243 292.229 316.931C291.143 316.005 289.778 315.471 288.352 315.416C286.875 315.441 285.456 315.994 284.349 316.975C283.243 317.956 282.522 319.3 282.316 320.767C282.111 322.233 282.434 323.725 283.228 324.973C284.022 326.222 285.234 327.146 286.647 327.578C286.095 328.921 285.818 330.362 285.833 331.814C285.831 334.504 286.781 337.108 288.512 339.164C290.244 341.219 292.645 342.594 295.291 343.044C294.228 344.093 293.412 345.366 292.902 346.771C292.391 348.177 292.2 349.678 292.341 351.167C292.482 352.655 292.952 354.094 293.717 355.377C294.483 356.661 295.523 357.757 296.764 358.587C295.656 359.458 294.76 360.571 294.147 361.842C293.534 363.114 293.22 364.509 293.228 365.92C293.236 367.332 293.567 368.723 294.194 369.987C294.822 371.251 295.729 372.355 296.848 373.213C297.967 374.07 299.267 374.66 300.648 374.937C302.029 375.213 303.455 375.169 304.816 374.807C306.178 374.446 307.439 373.776 308.502 372.851C309.566 371.925 310.404 370.768 310.952 369.467H311.689C313.847 369.476 315.947 368.765 317.659 367.447C318.231 368.002 318.869 368.485 319.558 368.884C317.73 369.402 316.085 370.429 314.816 371.846C313.546 373.263 312.704 375.011 312.387 376.889C311.046 376.245 309.514 376.123 308.088 376.546C306.662 376.968 305.443 377.906 304.667 379.177C303.89 380.448 303.612 381.963 303.885 383.428C304.158 384.893 304.964 386.204 306.145 387.109C305.382 388.121 304.92 389.329 304.811 390.594C304.703 391.858 304.952 393.127 305.531 394.256C306.11 395.384 306.995 396.326 308.085 396.973C309.174 397.619 310.423 397.945 311.689 397.911C312.771 397.916 313.837 397.649 314.79 397.134C316.308 398.022 318.033 398.491 319.791 398.494C321.795 398.48 323.751 397.872 325.412 396.746C326.107 398.127 327.116 399.325 328.358 400.243C327.268 401.179 326.396 402.342 325.8 403.65C325.204 404.959 324.9 406.382 324.908 407.82C324.908 410.489 325.965 413.049 327.848 414.937C329.731 416.824 332.285 417.884 334.948 417.884C335.771 417.877 336.591 417.772 337.39 417.574V417.884C337.393 419.364 337.724 420.824 338.359 422.159H337.894C335.774 422.167 333.712 422.847 332.002 424.102C330.966 423.344 329.717 422.936 328.435 422.936C327.041 422.911 325.681 423.364 324.578 424.22C323.476 425.076 322.698 426.283 322.372 427.642C322.047 429.001 322.194 430.43 322.789 431.694C323.384 432.958 324.391 433.981 325.644 434.593C324.186 434.521 322.733 434.823 321.424 435.472C320.115 436.12 318.993 437.093 318.165 438.298C317.336 439.504 316.829 440.901 316.691 442.358C316.553 443.815 316.789 445.284 317.376 446.624C317.963 447.964 318.882 449.131 320.046 450.015C321.21 450.899 322.58 451.47 324.026 451.674C325.472 451.878 326.946 451.708 328.308 451.181C329.67 450.653 330.874 449.786 331.808 448.66C332.909 449.508 334.225 450.031 335.607 450.169C336.989 450.306 338.382 450.054 339.629 449.439C340.875 448.825 341.925 447.873 342.66 446.691C343.394 445.51 343.785 444.146 343.786 442.754C343.799 441.934 343.668 441.118 343.399 440.344C343.815 439.972 344.204 439.57 344.561 439.14C345.494 440.492 346.739 441.597 348.19 442.362C349.642 443.126 351.256 443.528 352.896 443.531C353.828 443.544 354.756 443.413 355.648 443.142C356.081 444.701 357.023 446.069 358.323 447.028C362.626 444.23 366.89 441.355 370.999 438.324C371.646 437.536 372.132 436.628 372.429 435.651C372.726 434.675 372.828 433.65 372.729 432.634C372.631 431.618 372.334 430.632 371.855 429.731C371.376 428.83 370.725 428.033 369.939 427.384C369.867 427.325 369.794 427.268 369.72 427.21L369.836 427.133Z" fill="#898D78"/>
<path opacity="0.8" d="M206.015 74.4182L214.349 42.5935C214.349 42.4492 214.407 42.3108 214.508 42.2088C214.61 42.1068 214.748 42.0494 214.892 42.0494C215.036 42.0494 215.174 42.1068 215.276 42.2088C215.378 42.3108 215.435 42.4492 215.435 42.5935L223.459 74.4182C223.475 74.4932 223.475 74.5705 223.461 74.6456C223.446 74.7208 223.417 74.7924 223.375 74.8563C223.333 74.9202 223.279 74.9752 223.216 75.0181C223.152 75.061 223.081 75.091 223.006 75.1064L222.916 75.1176H206.558C206.471 75.1213 206.385 75.1041 206.307 75.0677C206.228 75.0312 206.16 74.9765 206.107 74.9081C206.053 74.8397 206.017 74.7595 206.001 74.6743C205.986 74.5891 205.99 74.5013 206.015 74.4182Z" fill="#A3AA83"/>
<path opacity="0.8" d="M223.847 79.1588L233.344 43.0209C233.378 42.8871 233.456 42.7686 233.565 42.6839C233.673 42.5993 233.807 42.5533 233.945 42.5533C234.083 42.5533 234.216 42.5993 234.325 42.6839C234.434 42.7686 234.512 42.8871 234.546 43.0209L243.655 79.1588C243.679 79.2492 243.682 79.3436 243.663 79.4351C243.645 79.5267 243.607 79.6129 243.551 79.6876C243.495 79.7622 243.423 79.8233 243.341 79.8663C243.258 79.9093 243.167 79.9331 243.074 79.936H224.467C224.38 79.9323 224.295 79.9116 224.217 79.875C224.139 79.8384 224.068 79.7867 224.01 79.7228C223.951 79.6589 223.906 79.584 223.876 79.5025C223.846 79.421 223.833 79.3345 223.837 79.2478L223.847 79.1588Z" fill="#A3AA83"/>
<path opacity="0.8" d="M39.1324 278.267L48.0096 244.267C48.0536 244.148 48.1329 244.045 48.2369 243.973C48.3408 243.9 48.4644 243.861 48.591 243.861C48.7176 243.861 48.8412 243.9 48.9452 243.973C49.0491 244.045 49.1284 244.148 49.1725 244.267L57.7008 278.19C57.742 278.339 57.7224 278.498 57.6464 278.633C57.5705 278.767 57.4443 278.866 57.2957 278.907C57.2508 278.919 57.2046 278.927 57.1581 278.928H39.7139C39.6375 278.929 39.5617 278.914 39.4909 278.886C39.4201 278.857 39.3556 278.815 39.3011 278.761C39.2466 278.708 39.2032 278.644 39.1733 278.573C39.1434 278.503 39.1277 278.427 39.127 278.351C39.1268 278.323 39.1286 278.295 39.1324 278.267Z" fill="#A3AA83"/>
<path opacity="0.8" d="M23.1251 299.717L32.0022 265.755C32.0463 265.636 32.1256 265.533 32.2296 265.461C32.3335 265.388 32.4571 265.35 32.5837 265.35C32.7103 265.35 32.8339 265.388 32.9378 265.461C33.0418 265.533 33.1211 265.636 33.1652 265.755L41.6935 299.678C41.7346 299.827 41.7151 299.986 41.6391 300.121C41.5631 300.255 41.437 300.354 41.2884 300.395C41.2436 300.408 41.1973 300.415 41.1507 300.416H23.7065C23.5524 300.419 23.4033 300.361 23.2921 300.254C23.1808 300.147 23.1166 300 23.1134 299.846C23.1125 299.802 23.1164 299.759 23.1251 299.717Z" fill="#A3AA83"/>
<path opacity="0.8" d="M297.189 102.707L306.648 66.5687C306.694 66.4407 306.778 66.3299 306.889 66.2516C307 66.1734 307.132 66.1313 307.268 66.1313C307.404 66.1313 307.536 66.1734 307.647 66.2516C307.758 66.3299 307.843 66.4407 307.888 66.5687L316.959 102.707C316.99 102.799 316.998 102.898 316.983 102.995C316.969 103.091 316.932 103.183 316.875 103.262C316.818 103.342 316.744 103.407 316.657 103.452C316.571 103.497 316.475 103.521 316.378 103.523H297.771C297.673 103.521 297.578 103.497 297.491 103.452C297.405 103.407 297.33 103.342 297.274 103.262C297.217 103.183 297.18 103.091 297.165 102.995C297.151 102.898 297.159 102.799 297.189 102.707Z" fill="#A3AA83"/>
<path opacity="0.8" d="M394.529 148.481L402.669 117.395C402.701 117.28 402.769 117.179 402.864 117.106C402.958 117.034 403.074 116.995 403.193 116.995C403.311 116.995 403.427 117.034 403.522 117.106C403.616 117.179 403.684 117.28 403.716 117.395L411.469 148.481C411.494 148.559 411.5 148.642 411.486 148.723C411.473 148.803 411.439 148.879 411.39 148.944C411.34 149.009 411.276 149.061 411.202 149.096C411.128 149.13 411.046 149.146 410.965 149.142H394.955C394.885 149.129 394.818 149.102 394.759 149.062C394.699 149.023 394.648 148.973 394.608 148.914C394.568 148.854 394.54 148.788 394.525 148.718C394.511 148.648 394.51 148.576 394.523 148.506L394.529 148.481Z" fill="#A3AA83"/>
<path opacity="0.8" d="M74.0213 315.843L82.8984 281.92C82.8984 281.765 82.9597 281.617 83.0687 281.508C83.1778 281.399 83.3257 281.337 83.4799 281.337C83.6341 281.337 83.782 281.399 83.8911 281.508C84.0001 281.617 84.0614 281.765 84.0614 281.92L92.5897 315.843C92.6308 315.992 92.6113 316.151 92.5353 316.286C92.4593 316.42 92.3332 316.519 92.1846 316.56C92.1398 316.573 92.0935 316.58 92.047 316.581H74.6027C74.5264 316.584 74.4503 316.572 74.3787 316.545C74.3072 316.519 74.2415 316.478 74.1856 316.426C74.1297 316.374 74.0845 316.311 74.0527 316.242C74.0209 316.172 74.0031 316.097 74.0003 316.02C73.9983 315.961 74.0054 315.901 74.0213 315.843Z" fill="#A3AA83"/>
<path opacity="0.8" d="M46.2259 316.62L55.1418 282.658C55.1747 282.534 55.2476 282.424 55.3493 282.346C55.4509 282.267 55.5756 282.225 55.7039 282.225C55.8322 282.225 55.9569 282.267 56.0586 282.346C56.1602 282.424 56.2332 282.534 56.266 282.658L64.8331 316.581C64.8484 316.662 64.8479 316.744 64.8314 316.824C64.815 316.904 64.783 316.98 64.7373 317.048C64.6916 317.115 64.633 317.173 64.565 317.218C64.4969 317.263 64.4207 317.294 64.3407 317.309L64.2516 317.32H46.8074C46.726 317.315 46.6463 317.295 46.5729 317.26C46.4994 317.224 46.4336 317.175 46.3792 317.114C46.3248 317.053 46.2829 316.982 46.2558 316.905C46.2288 316.828 46.2172 316.747 46.2216 316.665L46.2259 316.62Z" fill="#A3AA83"/>
<path opacity="0.8" d="M144.458 96.8779L150.854 72.5139C150.881 72.4269 150.935 72.3509 151.009 72.2969C151.082 72.243 151.17 72.2139 151.261 72.2139C151.352 72.2139 151.441 72.243 151.514 72.2969C151.587 72.3509 151.641 72.4269 151.668 72.5139L157.793 96.9167C157.812 96.9764 157.816 97.0398 157.805 97.1014C157.794 97.163 157.769 97.2211 157.731 97.2707C157.693 97.3203 157.643 97.3599 157.586 97.3862C157.53 97.4126 157.468 97.4248 157.405 97.4219H144.846C144.79 97.419 144.735 97.405 144.684 97.3809C144.634 97.3567 144.588 97.3228 144.551 97.2811C144.513 97.2394 144.485 97.1907 144.466 97.1378C144.447 97.0848 144.439 97.0288 144.442 96.9727C144.444 96.9406 144.449 96.9088 144.458 96.8779Z" fill="#A3AA83"/>
<path opacity="0.8" d="M270.789 88.1739L280.248 52.0359C280.294 51.9078 280.378 51.7971 280.489 51.7188C280.6 51.6405 280.732 51.5985 280.868 51.5985C281.004 51.5985 281.136 51.6405 281.247 51.7188C281.358 51.7971 281.442 51.9078 281.488 52.0359L290.598 88.1739C290.613 88.2593 290.612 88.3468 290.593 88.4316C290.575 88.5164 290.54 88.5968 290.491 88.668C290.441 88.7393 290.378 88.8001 290.306 88.847C290.233 88.8939 290.151 88.9259 290.066 88.9413L289.978 88.951H271.371C271.206 88.9459 271.051 88.8756 270.938 88.7555C270.825 88.6354 270.765 88.4754 270.77 88.3106C270.771 88.2644 270.778 88.2185 270.789 88.1739Z" fill="#A3AA83"/>
<path opacity="0.8" d="M121.158 110.75L130.655 74.5735C130.689 74.4397 130.767 74.3212 130.875 74.2366C130.984 74.1519 131.118 74.106 131.256 74.106C131.393 74.106 131.527 74.1519 131.636 74.2366C131.745 74.3212 131.822 74.4397 131.857 74.5735L140.966 110.711C140.991 110.805 140.993 110.903 140.972 110.997C140.952 111.092 140.91 111.18 140.85 111.256C140.79 111.331 140.713 111.391 140.626 111.432C140.538 111.472 140.442 111.492 140.346 111.489H121.778C121.686 111.49 121.594 111.471 121.51 111.433C121.426 111.395 121.352 111.338 121.292 111.267C121.233 111.197 121.19 111.114 121.167 111.024C121.143 110.935 121.14 110.841 121.158 110.75Z" fill="#A3AA83"/>
<path opacity="0.8" d="M74.5245 159.867L84.0219 123.807C84.056 123.673 84.1336 123.554 84.2424 123.47C84.3512 123.385 84.485 123.339 84.6227 123.339C84.7605 123.339 84.8943 123.385 85.003 123.47C85.1118 123.554 85.1894 123.673 85.2236 123.807L94.3333 159.945C94.3575 160.038 94.3596 160.136 94.3394 160.231C94.3192 160.325 94.2774 160.413 94.2172 160.489C94.157 160.564 94.0801 160.625 93.9926 160.665C93.9051 160.705 93.8094 160.725 93.7131 160.722H75.1447C75.0394 160.73 74.9338 160.71 74.838 160.666C74.7422 160.621 74.6593 160.553 74.5971 160.468C74.535 160.382 74.4957 160.282 74.483 160.177C74.4703 160.072 74.4846 159.965 74.5245 159.867Z" fill="#A3AA83"/>
<path opacity="0.8" d="M44.0521 361.89L52.968 327.967C53.0009 327.843 53.0738 327.733 53.1755 327.654C53.2771 327.576 53.4018 327.533 53.5301 327.533C53.6584 327.533 53.7831 327.576 53.8848 327.654C53.9864 327.733 54.0594 327.843 54.0922 327.967L62.6593 361.89C62.6837 361.978 62.687 362.071 62.669 362.161C62.6509 362.251 62.612 362.335 62.5553 362.407C62.4987 362.479 62.4259 362.536 62.343 362.575C62.26 362.613 62.1691 362.632 62.0778 362.628H44.6336C44.5522 362.625 44.4723 362.605 44.3985 362.57C44.3248 362.536 44.2585 362.487 44.2035 362.427C44.1486 362.366 44.106 362.296 44.0782 362.219C44.0504 362.142 44.038 362.061 44.0416 361.979L44.0521 361.89Z" fill="#A3AA83"/>
<path opacity="0.8" d="M71.2285 359.559L78.9815 330.337C79.0116 330.232 79.0751 330.139 79.1626 330.073C79.25 330.007 79.3565 329.971 79.466 329.971C79.5756 329.971 79.6821 330.007 79.7695 330.073C79.857 330.139 79.9205 330.232 79.9506 330.337L87.3159 359.559C87.3312 359.623 87.3336 359.69 87.3231 359.756C87.3126 359.821 87.2893 359.884 87.2545 359.94C87.2198 359.997 87.1743 360.046 87.1207 360.085C87.067 360.124 87.0063 360.151 86.9419 360.167C86.8994 360.177 86.8557 360.182 86.812 360.18H71.7324C71.6552 360.182 71.5786 360.167 71.5084 360.134C71.4382 360.102 71.3764 360.054 71.3277 359.994C71.279 359.934 71.2447 359.863 71.2275 359.788C71.2103 359.712 71.2106 359.634 71.2285 359.559Z" fill="#A3AA83"/>
<path opacity="0.8" d="M225.242 102.707L234.894 66.569C234.929 66.4352 235.006 66.3167 235.115 66.232C235.224 66.1474 235.358 66.1014 235.495 66.1014C235.633 66.1014 235.767 66.1474 235.876 66.232C235.984 66.3167 236.062 66.4352 236.096 66.569L245.206 102.707C245.236 102.8 245.245 102.898 245.23 102.995C245.215 103.091 245.178 103.183 245.121 103.263C245.065 103.342 244.99 103.407 244.904 103.452C244.818 103.498 244.722 103.522 244.624 103.523H226.017C225.905 103.561 225.785 103.566 225.67 103.537C225.556 103.509 225.452 103.448 225.37 103.362C225.289 103.277 225.234 103.17 225.211 103.053C225.188 102.937 225.199 102.817 225.242 102.707Z" fill="#A3AA83"/>
<path opacity="0.8" d="M396.777 357.499L406.236 321.361C406.282 321.233 406.366 321.122 406.477 321.044C406.588 320.966 406.721 320.924 406.856 320.924C406.992 320.924 407.125 320.966 407.236 321.044C407.347 321.122 407.431 321.233 407.477 321.361L416.548 357.499C416.571 357.589 416.574 357.684 416.556 357.775C416.538 357.867 416.499 357.953 416.443 358.028C416.387 358.102 416.316 358.164 416.233 358.207C416.15 358.25 416.059 358.273 415.966 358.276H397.359C397.195 358.271 397.039 358.201 396.926 358.081C396.814 357.961 396.753 357.801 396.758 357.636C396.759 357.59 396.766 357.544 396.777 357.499Z" fill="#A3AA83"/>
<path opacity="0.8" d="M423.023 211.742L415.851 184.542C415.851 184.418 415.802 184.299 415.715 184.212C415.628 184.125 415.509 184.075 415.386 184.075C415.263 184.075 415.144 184.125 415.057 184.212C414.97 184.299 414.921 184.418 414.921 184.542L408.021 211.742C407.99 211.862 408.008 211.989 408.07 212.096C408.133 212.202 408.235 212.279 408.354 212.31C408.397 212.322 408.442 212.327 408.486 212.325H422.558C422.681 212.329 422.801 212.284 422.89 212.199C422.98 212.115 423.033 211.998 423.037 211.874C423.038 211.83 423.034 211.785 423.023 211.742Z" fill="#A3AA83"/>
<path opacity="0.8" d="M423.912 225.382L432.363 193.207C432.405 193.097 432.48 193.003 432.577 192.936C432.673 192.869 432.788 192.834 432.906 192.834C433.023 192.834 433.138 192.869 433.235 192.936C433.332 193.003 433.406 193.097 433.448 193.207L441.55 225.382C441.566 225.457 441.566 225.534 441.552 225.609C441.537 225.684 441.508 225.756 441.466 225.82C441.424 225.884 441.37 225.939 441.307 225.982C441.243 226.024 441.172 226.054 441.098 226.07L441.008 226.081H424.455C424.379 226.078 424.304 226.059 424.235 226.026C424.166 225.994 424.104 225.948 424.052 225.892C424.001 225.835 423.961 225.769 423.935 225.697C423.909 225.625 423.897 225.548 423.901 225.472L423.912 225.382Z" fill="#A3AA83"/>
<path opacity="0.8" d="M217.221 132.278L226.679 96.1396C226.725 96.0116 226.809 95.9009 226.92 95.8226C227.031 95.7443 227.164 95.7023 227.299 95.7023C227.435 95.7023 227.568 95.7443 227.679 95.8226C227.79 95.9009 227.874 96.0116 227.92 96.1396L237.029 132.278C237.05 132.362 237.053 132.449 237.04 132.535C237.027 132.621 236.997 132.703 236.952 132.777C236.907 132.851 236.847 132.916 236.777 132.967C236.707 133.018 236.628 133.055 236.544 133.075C236.5 133.086 236.455 133.092 236.409 133.094H217.802C217.705 133.092 217.609 133.068 217.522 133.023C217.436 132.978 217.362 132.913 217.305 132.833C217.248 132.754 217.211 132.662 217.197 132.566C217.182 132.469 217.19 132.37 217.221 132.278Z" fill="#A3AA83"/>
<path opacity="0.8" d="M176.747 127.964L186.206 91.8264C186.252 91.6983 186.336 91.5876 186.447 91.5093C186.558 91.4311 186.69 91.389 186.826 91.389C186.962 91.389 187.094 91.4311 187.205 91.5093C187.316 91.5876 187.4 91.6983 187.446 91.8264L196.556 127.964C196.58 128.058 196.582 128.156 196.562 128.25C196.542 128.345 196.5 128.433 196.44 128.509C196.38 128.584 196.303 128.644 196.215 128.685C196.128 128.725 196.032 128.745 195.936 128.742H177.29C177.209 128.734 177.13 128.711 177.058 128.673C176.986 128.634 176.922 128.583 176.87 128.52C176.818 128.457 176.778 128.384 176.754 128.306C176.73 128.228 176.722 128.146 176.729 128.065L176.747 127.964Z" fill="#A3AA83"/>
<path opacity="0.8" d="M196.787 143.469L206.285 107.331C206.319 107.197 206.397 107.079 206.505 106.994C206.614 106.909 206.748 106.864 206.886 106.864C207.023 106.864 207.157 106.909 207.266 106.994C207.375 107.079 207.452 107.197 207.486 107.331L216.596 143.469C216.62 143.563 216.622 143.66 216.602 143.755C216.582 143.849 216.54 143.938 216.48 144.013C216.42 144.089 216.343 144.149 216.256 144.189C216.168 144.23 216.072 144.249 215.976 144.246H197.408C197.311 144.249 197.216 144.23 197.128 144.189C197.041 144.149 196.964 144.089 196.903 144.013C196.843 143.938 196.801 143.849 196.781 143.755C196.761 143.66 196.763 143.563 196.787 143.469Z" fill="#A3AA83"/>
<path opacity="0.8" d="M97.8259 414.581L106.742 380.658C106.775 380.534 106.848 380.424 106.949 380.346C107.051 380.267 107.176 380.225 107.304 380.225C107.432 380.225 107.557 380.267 107.659 380.346C107.76 380.424 107.833 380.534 107.866 380.658L116.433 414.581C116.458 414.67 116.461 414.762 116.443 414.852C116.425 414.942 116.386 415.026 116.329 415.098C116.273 415.17 116.2 415.228 116.117 415.266C116.034 415.305 115.943 415.323 115.852 415.32H98.4074C98.3311 415.322 98.255 415.31 98.1834 415.283C98.1119 415.257 98.0462 415.216 97.9903 415.164C97.9343 415.112 97.8892 415.049 97.8574 414.98C97.8256 414.91 97.8078 414.835 97.805 414.758C97.803 414.699 97.8101 414.639 97.8259 414.581Z" fill="#A3AA83"/>
<path opacity="0.8" d="M74.0213 409.724L82.8984 375.801C82.8984 375.647 82.9597 375.498 83.0687 375.389C83.1778 375.28 83.3257 375.218 83.4799 375.218C83.6341 375.218 83.782 375.28 83.8911 375.389C84.0001 375.498 84.0614 375.647 84.0614 375.801L92.5897 409.724C92.6308 409.873 92.6113 410.032 92.5353 410.167C92.4593 410.301 92.3332 410.4 92.1846 410.441C92.1398 410.454 92.0935 410.461 92.047 410.462H74.6027C74.5264 410.465 74.4503 410.453 74.3787 410.426C74.3072 410.4 74.2415 410.359 74.1856 410.307C74.1297 410.255 74.0845 410.192 74.0527 410.123C74.0209 410.053 74.0031 409.978 74.0003 409.901C73.9983 409.842 74.0054 409.782 74.0213 409.724Z" fill="#A3AA83"/>
<path opacity="0.8" d="M59.7912 392.16L68.2032 360.841C68.2347 360.726 68.303 360.624 68.3975 360.552C68.4921 360.48 68.6077 360.441 68.7266 360.441C68.8455 360.441 68.9611 360.48 69.0556 360.552C69.1501 360.624 69.2184 360.726 69.2499 360.841L77.1967 392.355C77.212 392.424 77.2134 392.496 77.2009 392.567C77.1884 392.637 77.1622 392.704 77.1238 392.765C77.0854 392.825 77.0356 392.877 76.9771 392.918C76.9186 392.958 76.8527 392.987 76.7831 393.003C76.7407 393.012 76.6974 393.016 76.654 393.015H60.4503C60.3363 393.084 60.2013 393.108 60.0708 393.083C59.9403 393.058 59.8234 392.986 59.7422 392.881C59.661 392.776 59.6211 392.644 59.6302 392.511C59.6392 392.378 59.6965 392.254 59.7912 392.16Z" fill="#A3AA83"/>
<path opacity="0.8" d="M366.074 136.358L375.533 100.22C375.567 100.086 375.645 99.9676 375.754 99.8829C375.862 99.7983 375.996 99.7523 376.134 99.7523C376.272 99.7523 376.405 99.7983 376.514 99.8829C376.623 99.9676 376.701 100.086 376.735 100.22L385.845 136.358C385.865 136.437 385.87 136.519 385.858 136.6C385.847 136.681 385.82 136.759 385.778 136.829C385.737 136.9 385.682 136.961 385.617 137.01C385.552 137.059 385.478 137.095 385.399 137.116C385.355 137.127 385.309 137.134 385.263 137.135H366.695C366.598 137.138 366.503 137.119 366.415 137.078C366.328 137.038 366.251 136.977 366.191 136.902C366.13 136.827 366.089 136.738 366.068 136.644C366.048 136.549 366.05 136.451 366.074 136.358Z" fill="#A3AA83"/>
<path opacity="0.8" d="M87.5896 371.838L96.4668 337.915C96.5109 337.796 96.5902 337.693 96.6941 337.621C96.7981 337.548 96.9217 337.509 97.0483 337.509C97.1749 337.509 97.2985 337.548 97.4024 337.621C97.5064 337.693 97.5857 337.796 97.6297 337.915L106.158 371.838C106.191 371.923 106.202 372.015 106.189 372.106C106.177 372.196 106.143 372.282 106.088 372.356C106.034 372.429 105.963 372.488 105.88 372.527C105.797 372.565 105.706 372.582 105.615 372.576H88.1711C88.0948 372.579 88.0187 372.567 87.9471 372.54C87.8755 372.513 87.8099 372.473 87.754 372.42C87.698 372.368 87.6529 372.306 87.6211 372.236C87.5893 372.167 87.5715 372.091 87.5687 372.015C87.5667 371.955 87.5738 371.895 87.5896 371.838Z" fill="#A3AA83"/>
<path opacity="0.8" d="M421.273 356.022C421.273 355.858 421.208 355.699 421.092 355.583C420.975 355.466 420.818 355.401 420.653 355.401C420.489 355.401 420.331 355.466 420.215 355.583C420.098 355.699 420.033 355.858 420.033 356.022L410.574 392.122C410.543 392.218 410.535 392.32 410.551 392.419C410.568 392.519 410.609 392.613 410.67 392.693C410.731 392.774 410.811 392.838 410.902 392.881C410.993 392.923 411.094 392.943 411.195 392.938H416.738C420.304 388.171 423.677 383.262 426.856 378.21L421.273 356.022Z" fill="#A3AA83"/>
<path opacity="0.8" d="M380.029 123.379H398.598C398.694 123.382 398.79 123.363 398.877 123.322C398.965 123.282 399.042 123.221 399.102 123.146C399.162 123.071 399.204 122.982 399.224 122.888C399.244 122.793 399.242 122.695 399.218 122.602L392.706 96.6059C390.961 94.9739 389.256 93.3418 387.472 91.7487L379.409 122.524C379.369 122.622 379.355 122.729 379.368 122.834C379.381 122.939 379.42 123.039 379.482 123.125C379.544 123.21 379.627 123.279 379.723 123.323C379.819 123.368 379.924 123.387 380.029 123.379Z" fill="#A3AA83"/>
</g>
</g>
</g>
<mask id="path-69-outside-1" maskUnits="userSpaceOnUse" x="233.881" y="8" width="200" height="261" fill="black">
<rect fill="white" x="233.881" y="8" width="200" height="261"/>
<path fill-rule="evenodd" clip-rule="evenodd" d="M245.881 20.034V243.134L416.289 99.8154C390.722 68.3538 356.873 44.7004 318.581 31.536L318.515 31.7281C295.291 23.5841 270.705 19.5854 245.881 20.034Z"/>
</mask>
<path fill-rule="evenodd" clip-rule="evenodd" d="M245.881 20.034V243.134L416.289 99.8154C390.722 68.3538 356.873 44.7004 318.581 31.536L318.515 31.7281C295.291 23.5841 270.705 19.5854 245.881 20.034Z" fill="#EEEFED"/>
<path d="M245.881 243.134H233.881V268.906L253.605 252.318L245.881 243.134ZM245.881 20.034L245.664 8.03594L233.881 8.24887V20.034H245.881ZM416.289 99.8154L424.013 108.999L433.043 101.404L425.602 92.2474L416.289 99.8154ZM318.581 31.536L322.482 20.1879L311.132 16.2858L307.232 27.6369L318.581 31.536ZM318.515 31.7281L314.544 43.052L325.94 47.0484L329.863 35.6272L318.515 31.7281ZM257.881 243.134V20.034H233.881V243.134H257.881ZM408.565 90.6316L238.157 233.95L253.605 252.318L424.013 108.999L408.565 90.6316ZM314.679 42.8841C350.848 55.3182 382.822 77.6607 406.977 107.383L425.602 92.2474C398.621 59.0468 362.899 34.0826 322.482 20.1879L314.679 42.8841ZM329.863 35.6272L329.929 35.4351L307.232 27.6369L307.166 27.829L329.863 35.6272ZM246.098 32.032C269.49 31.6093 292.658 35.3773 314.544 43.052L322.486 20.4042C297.924 11.7909 271.92 7.56145 245.664 8.03594L246.098 32.032Z" fill="#EEEFED" mask="url(#path-69-outside-1)"/>
<g filter="url(#filter1_d)">
<path fill-rule="evenodd" clip-rule="evenodd" d="M244.881 20.034V243.134L415.289 99.8154C389.722 68.3538 355.873 44.7004 317.581 31.536L317.515 31.7281C294.291 23.5841 269.705 19.5854 244.881 20.034Z" fill="#EEEFED"/>
</g>
<path fill-rule="evenodd" clip-rule="evenodd" d="M244.881 20.034V243.134L415.289 99.8154C389.722 68.3538 355.873 44.7004 317.581 31.536L317.515 31.7281C294.291 23.5841 269.705 19.5854 244.881 20.034Z" fill="#EEEFED"/>
<path d="M244.881 243.134V20.034C284.039 19.3263 322.605 29.6848 356.164 49.9236L244.881 243.134Z" fill="#B0BF68"/>
<path d="M244.881 243.134L317.581 31.536C355.873 44.7004 389.722 68.3538 415.289 99.8154L244.881 243.134Z" fill="#DFF774"/>
<defs>
<filter id="filter0_d" x="0.330078" y="19.5886" width="476.339" height="477.411" filterUnits="userSpaceOnUse" color-interpolation-filters="sRGB">
<feFlood flood-opacity="0" result="BackgroundImageFix"/>
<feColorMatrix in="SourceAlpha" type="matrix" values="0 0 0 0 0 0 0 0 0 0 0 0 0 0 0 0 0 0 127 0"/>
<feOffset/>
<feGaussianBlur stdDeviation="7.5"/>
<feColorMatrix type="matrix" values="0 0 0 0 0 0 0 0 0 0 0 0 0 0 0 0 0 0 0.12 0"/>
<feBlend mode="normal" in2="BackgroundImageFix" result="effect1_dropShadow"/>
<feBlend mode="normal" in="SourceGraphic" in2="effect1_dropShadow" result="shape"/>
</filter>
<filter id="filter1_d" x="224.881" y="0" width="210.408" height="263.134" filterUnits="userSpaceOnUse" color-interpolation-filters="sRGB">
<feFlood flood-opacity="0" result="BackgroundImageFix"/>
<feColorMatrix in="SourceAlpha" type="matrix" values="0 0 0 0 0 0 0 0 0 0 0 0 0 0 0 0 0 0 127 0"/>
<feOffset/>
<feGaussianBlur stdDeviation="10"/>
<feColorMatrix type="matrix" values="0 0 0 0 0 0 0 0 0 0 0 0 0 0 0 0 0 0 0.1 0"/>
<feBlend mode="normal" in2="BackgroundImageFix" result="effect1_dropShadow"/>
<feBlend mode="normal" in="SourceGraphic" in2="effect1_dropShadow" result="shape"/>
</filter>
</defs>
</svg>
