<svg width="36" height="43" viewBox="0 0 36 43" fill="none" xmlns="http://www.w3.org/2000/svg">
<path d="M10.2261 42.5594H7.74804L7.05798 40.6023H3.59425L2.90424 42.5594H0.539062L4.19972 32.8304H6.56518L10.2261 42.5594ZM6.5371 38.8282L5.32611 35.336L4.11517 38.8282H6.5371Z" fill="white"/>
<path d="M17.8671 41.9262C17.1222 42.3906 16.2513 42.6119 15.3751 42.5595H11.4043V32.8446H14.7132C15.5318 32.7943 16.351 32.934 17.1067 33.2526C17.4881 33.4372 17.808 33.7282 18.0279 34.0904C18.2478 34.4527 18.3583 34.8707 18.346 35.2943C18.3543 35.7532 18.2226 36.2038 17.9685 36.586C17.7144 36.9683 17.35 37.2642 16.9237 37.4342V37.4626C18.1346 37.7584 18.9373 38.5748 18.9373 39.7713C18.958 40.1921 18.8706 40.6111 18.6832 40.9883C18.4958 41.3656 18.2149 41.6885 17.8671 41.9262ZM15.6285 34.7309C15.3188 34.5626 14.9649 34.4938 14.6147 34.5339H13.6714V36.7726H14.5583C14.9284 36.817 15.303 36.7431 15.6285 36.5615C15.7843 36.4637 15.911 36.3259 15.9952 36.1623C16.0794 35.9988 16.1181 35.8156 16.1071 35.632C16.1198 35.452 16.0817 35.2721 15.9971 35.1128C15.9124 34.9534 15.7847 34.8211 15.6285 34.7309ZM16.1352 38.6173C15.7712 38.3995 15.3464 38.3055 14.9245 38.3495H13.6713V40.8276H14.9245C15.3464 40.8718 15.7712 40.778 16.1352 40.5603C16.2879 40.4485 16.4121 40.3023 16.4978 40.1335C16.5834 39.9647 16.628 39.7781 16.628 39.5888C16.628 39.3996 16.5834 39.213 16.4978 39.0442C16.4121 38.8754 16.2879 38.7291 16.1352 38.6173Z" fill="white"/>
<path d="M31.4241 42.5594H29.1855L28.8053 35.9417H28.7772L26.6932 42.5594H24.891L22.7931 35.9417H22.7509L22.3987 42.5594H20.1602L20.8926 32.8445H23.7647L25.7922 39.2364H25.8203L27.8197 32.8445H30.7061L31.4241 42.5594Z" fill="white"/>
<path d="M35.4599 42.5594H33.1787V32.8445H35.4599V42.5594Z" fill="white"/>
<path d="M30.6315 12.5746C31.4749 11.8033 32.2486 10.959 32.9433 10.0515C34.4469 7.8749 35.1308 5.20746 35.4616 2.57556C34.6281 4.70786 33.5374 6.73047 32.2138 8.59853C30.9814 10.2331 29.4503 11.6192 27.7017 12.6835C27.1572 13.0302 26.9051 13.1742 26.9245 13.4721C26.9528 13.9077 27.4418 14.062 27.7717 14.1722C28.6342 14.4157 29.4494 14.803 30.1831 15.3176C30.3903 15.4774 30.5614 15.6792 30.685 15.9098C30.8087 16.1403 30.8821 16.3945 30.9005 16.6555C30.9189 16.9165 30.8819 17.1785 30.7918 17.4241C30.7018 17.6698 30.5607 17.8936 30.378 18.0809C29.4748 18.9779 28.225 18.9972 27.054 19.0943C25.6947 19.207 24.3312 19.2455 22.9708 19.3402C22.1517 19.3971 21.3341 19.4743 20.5182 19.5718C19.7341 19.6655 19.0133 19.6951 18.3506 20.1791C17.2888 20.9545 18.4791 22.3341 19.0302 23.1073C19.48 23.7383 19.9522 24.8419 19.3705 25.4855C18.5431 26.401 17.2381 26.0087 16.1932 25.5861C12.9557 24.2769 9.02648 22.6003 5.53656 24.2733L4.79354 24.6292C5.08681 24.3244 5.40843 24.0482 5.75405 23.8044C7.24364 22.6531 9.12587 22.1331 10.9952 22.3564C12.2302 22.5015 13.4431 22.7955 14.6075 23.232C16.0752 23.6709 16.6811 24.0927 16.9725 23.6503C17.1983 23.3074 16.7332 22.9324 16.3817 22.4652C15.9346 21.8711 15.2102 20.8753 15.8612 19.7069C16.7065 18.1898 18.5234 18.0026 19.9913 17.8573C21.976 17.6608 23.7731 17.5551 25.7653 17.4708C27.0965 17.4145 28.1399 17.4364 28.2847 16.8985C28.4632 16.2359 27.9166 15.9443 27.4014 15.7418C26.8249 15.5152 26.143 15.2757 25.5717 15.0343C25.0747 14.8242 24.5006 14.5695 24.3525 13.9708C24.1531 13.1642 24.92 12.5845 25.3498 12.268C25.9234 11.8454 26.9036 11.2895 27.4869 10.8817C29.1788 9.69917 30.9347 8.47397 32.2451 6.50837C30.0487 8.17691 27.6383 9.54316 25.0785 10.5705C21.1102 12.1998 13.4955 14.9682 9.55813 17.3938C7.258 18.8108 1.19836 22.3842 0.618164 32.7526C0.927667 31.9002 1.28556 31.0662 1.69009 30.2546C2.4512 28.5874 3.76066 27.2313 5.40027 26.4123C7.56289 25.4316 9.95644 25.866 12.3533 26.6646C14.4028 27.3474 16.4534 28.2432 18.6355 28.2864C20.2741 28.3189 22.2758 27.4246 22.3382 25.4412C22.3744 24.4582 22.0398 23.4975 21.4009 22.7497C21.1984 22.4913 20.8357 22.1185 20.9457 21.8005C21.0554 21.4833 21.467 21.3592 21.78 21.336C24.468 21.1395 27.2589 21.173 29.9004 20.56C30.8653 20.3819 31.7454 19.8932 32.4067 19.1684C32.9475 18.4997 33.2149 17.651 33.1551 16.7931C33.0573 15.4032 32.0673 14.4767 30.954 13.8181C30.7445 13.6942 30.273 13.4868 30.2344 13.1978C30.202 12.9556 30.4877 12.7207 30.6315 12.5746Z" fill="#A3AA83"/>
<path d="M31.6888 3.5423C29.0506 4.58358 26.5485 4.51431 25.6944 2.22083C25.4413 1.51681 25.2568 0.789987 25.1435 0.0504918C22.7483 0.703643 20.6144 2.08331 19.0358 3.9995C17.8365 2.97538 17.0413 1.55742 16.7929 0C15.322 0.533021 13.9731 1.35582 12.826 2.41966C11.6788 3.4835 10.7569 4.76674 10.1147 6.19336C10.1147 6.19336 9.09972 5.24502 8.30212 2.44841C8.30212 2.44841 4.13054 4.60938 1.82725 10.5577C-0.222699 15.8517 0.954626 21.4574 0.954626 21.4574C5.08547 14.9672 12.9046 13.2074 20.2396 10.4758C27.1125 7.91625 32.9356 6.11454 35.415 0.904348C35.4148 0.904348 33.4925 2.83071 31.6888 3.5423ZM9.31497 8.50877C9.21381 8.60013 9.08067 8.64787 8.94451 8.64162C8.59752 8.612 8.27149 8.46319 8.02177 8.22046C7.91225 8.11264 7.7662 8.04991 7.6126 8.04469C7.25993 8.04469 6.80322 8.39804 6.17544 9.15697C5.81982 9.58647 5.5643 9.92686 5.35088 10.2113C4.92342 10.7823 4.70889 11.069 4.34478 11.069C4.31358 11.0689 4.28243 11.0667 4.2515 11.0627C4.15642 11.0541 4.06555 11.0194 3.98885 10.9626C3.91215 10.9057 3.85258 10.8289 3.81667 10.7404C3.54563 10.0862 4.4689 8.78087 4.47821 8.76797C5.29696 7.52055 6.26796 6.38001 7.36877 5.37273L7.54474 5.21514L7.61527 5.15209L7.65407 5.23988L7.75108 5.45945C7.93436 5.87519 8.15006 6.27587 8.39617 6.65778L8.53388 6.8825C8.67421 7.09207 8.82725 7.29284 8.99214 7.4837L9.02342 7.52202C9.1342 7.65753 9.23882 7.78544 9.3222 7.90204C9.39641 7.98608 9.43676 8.09469 9.43542 8.2068C9.43409 8.3189 9.39116 8.42652 9.31497 8.50877ZM17.6314 5.3009C17.601 5.35639 17.5594 5.40503 17.5093 5.44378C17.4593 5.48254 17.4018 5.51059 17.3404 5.52619C17.2965 5.53759 17.2513 5.54343 17.2059 5.54361C16.8568 5.4997 16.5257 5.36337 16.2469 5.14869C16.0673 5.01427 15.8523 4.93537 15.6283 4.9217C15.3047 4.92446 14.9618 5.16009 14.3187 5.82192C14.0714 6.07671 13.8607 6.30007 13.6795 6.49311C13.0703 7.13913 12.7347 7.49505 12.399 7.49791C12.2983 7.4973 12.1999 7.46832 12.115 7.41429C12.0339 7.36742 11.9645 7.30282 11.9119 7.22532C11.8593 7.14781 11.8249 7.05942 11.8114 6.96675C11.7158 6.36778 12.3833 5.4822 12.7897 5.00774C13.5891 3.98794 14.5669 3.12162 15.6756 2.45088L15.8481 2.34053L15.9167 2.29649L15.9488 2.37328L16.0296 2.56637C16.2077 2.97444 16.4307 3.36137 16.6946 3.71997C16.8112 3.87634 16.9388 4.0242 17.0764 4.16242L17.0926 4.17959L17.2247 4.31894C17.2392 4.33437 17.2577 4.35202 17.278 4.37167L17.3 4.39301C17.4808 4.56136 17.8564 4.91199 17.6314 5.30085V5.3009ZM25.1791 4.66245C25.151 4.73432 25.1053 4.79798 25.0462 4.84758C24.9872 4.89718 24.9165 4.93112 24.8409 4.94629C24.8031 4.9545 24.7646 4.95879 24.726 4.95909C24.4562 4.94162 24.2041 4.81874 24.0241 4.617C23.9959 4.58819 23.9668 4.55321 23.9346 4.51436L23.9126 4.48788C23.7965 4.34407 23.6765 4.19531 23.4978 4.19735C23.1526 4.24792 22.83 4.39954 22.5708 4.6331C22.3975 4.7547 22.2481 4.87601 22.0976 4.99819C21.8646 5.20242 21.6103 5.38094 21.3391 5.53066C21.2336 5.59372 21.1134 5.62784 20.9905 5.62955C20.9132 5.6301 20.8363 5.61914 20.7622 5.59706C20.6929 5.57294 20.6307 5.53223 20.5808 5.47849C20.5309 5.42475 20.4949 5.35961 20.476 5.28877C20.4456 5.18764 20.4394 5.08076 20.458 4.97681C20.4767 4.87285 20.5196 4.77477 20.5833 4.69053C21.4457 3.56811 22.5884 2.69255 23.8966 2.1519L24.0774 2.07032L24.1497 2.03763L24.1688 2.11776L24.2168 2.3191C24.3406 2.91644 24.5965 3.47853 24.9656 3.96424C25.136 4.19933 25.2829 4.40242 25.1791 4.66245Z" fill="#949A90"/>
</svg>
