<?xml version="1.0" encoding="UTF-8"?>
<svg xmlns="http://www.w3.org/2000/svg" xmlns:xlink="http://www.w3.org/1999/xlink" width="76.15pt" height="151.48pt" viewBox="0 0 76.15 151.48" version="1.1">
<g id="surface1">
<path style="fill:none;stroke-width:21.6;stroke-linecap:square;stroke-linejoin:miter;stroke:rgb(30.587769%,56.079102%,18.03894%);stroke-opacity:1;stroke-miterlimit:2.6131;" d="M 513.28125 840.034375 L 596.992188 840.034375 C 689.84375 840.034375 805.078125 1030.1125 696.367188 1152.495313 C 591.328125 1268.510938 494.765625 1390.464063 380.625 1499.565625 M 249.0625 840.034375 L 165 840.034375 C 72.109375 840.034375 -44.53125 1030.1125 65.625 1152.495313 C 170.351562 1268.354688 272.773438 1386.51875 380.273438 1499.565625 M 380.273438 609.64375 L 380.273438 1478.667188 " transform="matrix(0.1,0,0,-0.1,0,151.48)"/>
<path style="fill:none;stroke-width:24.0009;stroke-linecap:square;stroke-linejoin:miter;stroke:rgb(30.587769%,56.079102%,18.03894%);stroke-opacity:1;stroke-miterlimit:3;" d="M 337.773438 655.698438 L 337.773438 1387.221875 C 259.296875 1300.815625 181.5625 1215.151563 103.789062 1129.4875 C 18.085938 1036.596875 95.15625 886.83125 176.523438 886.83125 L 248.515625 886.83125 " transform="matrix(0.1,0,0,-0.1,0,151.48)"/>
<path style="fill:none;stroke-width:24.0009;stroke-linecap:square;stroke-linejoin:miter;stroke:rgb(30.587769%,56.079102%,18.03894%);stroke-opacity:1;stroke-miterlimit:3;" d="M 248.515625 930.7375 L 186.5625 930.7375 C 126.09375 930.7375 69.21875 1027.964063 141.210938 1105.698438 L 297.460938 1277.065625 L 297.460938 699.64375 " transform="matrix(0.1,0,0,-0.1,0,151.48)"/>
<path style="fill:none;stroke-width:24.0009;stroke-linecap:square;stroke-linejoin:miter;stroke:rgb(30.587769%,56.079102%,18.03894%);stroke-opacity:1;stroke-miterlimit:3;" d="M 421.328125 655.698438 L 421.328125 1387.221875 C 501.210938 1299.409375 581.132812 1213.003125 655.3125 1129.4875 C 740.273438 1036.596875 663.242188 886.83125 582.578125 886.83125 L 512.734375 886.83125 " transform="matrix(0.1,0,0,-0.1,0,151.48)"/>
<path style="fill:none;stroke-width:24.0009;stroke-linecap:square;stroke-linejoin:miter;stroke:rgb(30.587769%,56.079102%,18.03894%);stroke-opacity:1;stroke-miterlimit:4;" d="M 463.789062 698.901563 L 463.789062 1277.065625 C 520.664062 1215.854688 575.390625 1157.534375 620.039062 1105.698438 C 691.328125 1027.964063 634.414062 930.7375 573.945312 930.7375 L 512.734375 930.7375 " transform="matrix(0.1,0,0,-0.1,0,151.48)"/>
<path style=" stroke:none;fill-rule:evenodd;fill:rgb(0%,0%,0%);fill-opacity:1;" d="M 72.71875 107.828125 L 71.90625 103.171875 L 71.875 103.171875 L 71.152344 107.828125 Z M 70.808594 100.316406 L 73.117188 100.316406 L 75.792969 111.46875 L 73.457031 111.46875 L 73.03125 109.589844 L 70.808594 109.589844 L 70.398438 111.46875 L 68.207031 111.46875 Z M 58.144531 100.316406 L 63.792969 100.316406 L 63.792969 102.371094 L 62.0625 102.371094 L 62.0625 111.46875 L 59.871094 111.46875 L 59.871094 102.371094 L 58.144531 102.371094 Z M 48.582031 102.136719 L 48.582031 105.078125 C 48.71875 105.078125 48.828125 105.089844 48.90625 105.109375 C 49.914062 105.078125 50.390625 104.5 50.34375 103.378906 C 50.34375 102.550781 49.871094 102.136719 48.9375 102.136719 Z M 46.363281 100.316406 L 48.847656 100.316406 C 51.207031 100.316406 52.425781 101.308594 52.515625 103.289062 C 52.515625 104.757812 51.984375 105.789062 50.917969 106.382812 L 52.855469 111.46875 L 50.546875 111.46875 L 48.609375 106.320312 L 48.582031 106.320312 L 48.582031 111.46875 L 46.363281 111.46875 Z M 35.679688 100.316406 L 40.132812 100.316406 L 40.132812 102.371094 L 37.898438 102.371094 L 37.898438 104.796875 L 39.863281 104.796875 L 39.863281 106.867188 L 37.898438 106.867188 L 37.898438 109.382812 L 40.144531 109.382812 L 40.144531 111.46875 L 35.679688 111.46875 Z M 25.941406 106.585938 L 25.941406 109.621094 C 26.257812 109.628906 26.519531 109.5625 26.730469 109.417969 C 26.945312 109.277344 27.097656 109.082031 27.191406 108.835938 C 27.285156 108.589844 27.332031 108.324219 27.332031 108.035156 C 27.332031 107.632812 27.214844 107.289062 26.984375 107.011719 C 26.75 106.726562 26.402344 106.585938 25.941406 106.585938 Z M 25.941406 102.164062 L 25.941406 104.886719 C 26.226562 104.90625 26.511719 104.808594 26.796875 104.589844 C 27.085938 104.375 27.230469 104.027344 27.242188 103.554688 C 27.242188 103.121094 27.140625 102.78125 26.9375 102.535156 C 26.734375 102.289062 26.421875 102.164062 26 102.164062 Z M 23.722656 100.316406 L 26.265625 100.316406 C 27.085938 100.316406 27.769531 100.542969 28.320312 100.996094 C 28.875 101.449219 29.199219 102.132812 29.296875 103.039062 L 29.296875 103.527344 C 29.296875 104.511719 28.914062 105.242188 28.144531 105.714844 C 29 106.199219 29.449219 107.046875 29.488281 108.257812 C 29.519531 108.9375 29.382812 109.523438 29.074219 110.011719 C 28.769531 110.5 28.347656 110.863281 27.8125 111.105469 C 27.273438 111.347656 26.667969 111.46875 26 111.46875 L 23.722656 111.46875 Z M 13.332031 100.316406 L 15.550781 100.316406 L 15.550781 109.382812 L 17.828125 109.382812 L 17.828125 111.46875 L 13.332031 111.46875 Z M 4.511719 107.828125 L 3.699219 103.171875 L 3.667969 103.171875 L 2.945312 107.828125 Z M 2.601562 100.316406 L 4.910156 100.316406 L 7.585938 111.46875 L 5.25 111.46875 L 4.820312 109.589844 L 2.601562 109.589844 L 2.1875 111.46875 L 0 111.46875 L 2.601562 100.316406 "/>
<path style=" stroke:none;fill-rule:evenodd;fill:rgb(0%,0%,0%);fill-opacity:1;" d="M 76.03125 119.886719 L 76.03125 121.914062 C 75.757812 121.835938 75.472656 121.796875 75.191406 121.796875 C 74.757812 121.796875 74.328125 121.902344 73.910156 122.113281 C 73.488281 122.324219 73.140625 122.679688 72.859375 123.179688 C 72.578125 123.675781 72.433594 124.339844 72.421875 125.167969 C 72.410156 125.769531 72.515625 126.367188 72.726562 126.964844 C 72.9375 127.5625 73.246094 128.042969 73.652344 128.414062 C 74.054688 128.785156 74.539062 128.976562 75.097656 128.984375 C 75.335938 128.964844 75.648438 128.910156 76.03125 128.820312 L 76.03125 130.894531 C 75.648438 131.011719 75.230469 131.070312 74.789062 131.070312 C 73.960938 131.070312 73.183594 130.828125 72.460938 130.34375 C 71.734375 129.859375 71.152344 129.175781 70.707031 128.289062 C 70.265625 127.402344 70.039062 126.398438 70.039062 125.285156 C 70.039062 124.328125 70.253906 123.417969 70.667969 122.558594 C 71.089844 121.695312 71.664062 121.003906 72.394531 120.484375 C 73.121094 119.96875 73.910156 119.710938 74.761719 119.710938 C 75.195312 119.710938 75.617188 119.769531 76.03125 119.886719 Z M 60.714844 119.828125 L 62.933594 119.828125 L 62.933594 130.980469 L 60.714844 130.980469 Z M 48.917969 119.828125 L 53.367188 119.828125 L 53.367188 121.886719 L 51.136719 121.886719 L 51.136719 124.28125 L 53.160156 124.28125 L 53.160156 126.351562 L 51.136719 126.351562 L 51.136719 130.980469 L 48.917969 130.980469 Z M 39.175781 119.828125 L 41.394531 119.828125 L 41.394531 130.980469 L 39.175781 130.980469 Z M 32.128906 119.886719 L 32.128906 121.914062 C 31.851562 121.835938 31.570312 121.796875 31.285156 121.796875 C 30.851562 121.796875 30.421875 121.902344 30.003906 122.113281 C 29.585938 122.324219 29.234375 122.679688 28.953125 123.179688 C 28.671875 123.675781 28.527344 124.339844 28.519531 125.167969 C 28.507812 125.769531 28.609375 126.367188 28.820312 126.964844 C 29.03125 127.5625 29.339844 128.042969 29.746094 128.414062 C 30.152344 128.785156 30.632812 128.976562 31.195312 128.984375 C 31.433594 128.964844 31.742188 128.910156 32.128906 128.820312 L 32.128906 130.894531 C 31.742188 131.011719 31.328125 131.070312 30.886719 131.070312 C 30.054688 131.070312 29.28125 130.828125 28.554688 130.34375 C 27.832031 129.859375 27.246094 129.175781 26.800781 128.289062 C 26.359375 127.402344 26.136719 126.398438 26.136719 125.285156 C 26.136719 124.328125 26.347656 123.417969 26.765625 122.558594 C 27.183594 121.695312 27.757812 121.003906 28.488281 120.484375 C 29.21875 119.96875 30.007812 119.710938 30.855469 119.710938 C 31.289062 119.710938 31.714844 119.769531 32.128906 119.886719 Z M 16.648438 127.34375 L 15.832031 122.683594 L 15.804688 122.683594 L 15.078125 127.34375 Z M 14.738281 119.828125 L 17.046875 119.828125 L 19.722656 130.980469 L 17.386719 130.980469 L 16.957031 129.101562 L 14.738281 129.101562 L 14.324219 130.980469 L 12.136719 130.980469 Z M 2.425781 121.648438 L 2.425781 124.59375 C 2.996094 124.609375 3.414062 124.503906 3.675781 124.265625 C 3.9375 124.027344 4.066406 123.628906 4.066406 123.066406 C 4.066406 122.121094 3.617188 121.648438 2.71875 121.648438 Z M 0.207031 119.828125 L 3 119.828125 C 3.988281 119.828125 4.769531 120.089844 5.34375 120.613281 C 5.921875 121.136719 6.238281 121.894531 6.300781 122.890625 C 6.359375 124.035156 6.054688 124.90625 5.390625 125.507812 C 4.722656 126.109375 3.910156 126.421875 2.941406 126.441406 C 2.726562 126.398438 2.550781 126.382812 2.425781 126.382812 L 2.425781 130.980469 L 0.207031 130.980469 L 0.207031 119.828125 "/>
<path style="fill:none;stroke-width:21.4327;stroke-linecap:butt;stroke-linejoin:miter;stroke:rgb(0%,0%,0%);stroke-opacity:1;stroke-miterlimit:2.6131;" d="M 3.945312 356.20625 L 760.625 356.20625 " transform="matrix(0.1,0,0,-0.1,0,151.48)"/>
<path style=" stroke:none;fill-rule:evenodd;fill:rgb(0%,0%,0%);fill-opacity:1;" d="M 0.304688 136.667969 L 76.152344 136.667969 L 76.152344 151.480469 L 0.304688 151.480469 L 0.304688 136.667969 "/>
<path style=" stroke:none;fill-rule:evenodd;fill:rgb(100%,100%,95.68634%);fill-opacity:1;" d="M 73.855469 141.199219 L 73.855469 142.25 C 73.710938 142.210938 73.566406 142.1875 73.414062 142.1875 C 73.191406 142.1875 72.96875 142.246094 72.753906 142.355469 C 72.53125 142.464844 72.351562 142.648438 72.207031 142.910156 C 72.058594 143.167969 71.984375 143.511719 71.976562 143.941406 C 71.972656 144.257812 72.027344 144.566406 72.136719 144.875 C 72.246094 145.1875 72.40625 145.4375 72.617188 145.632812 C 72.828125 145.824219 73.078125 145.921875 73.371094 145.925781 C 73.492188 145.917969 73.65625 145.890625 73.855469 145.84375 L 73.855469 146.917969 C 73.65625 146.980469 73.441406 147.011719 73.210938 147.011719 C 72.777344 147.011719 72.375 146.886719 71.996094 146.636719 C 71.621094 146.382812 71.316406 146.027344 71.085938 145.566406 C 70.855469 145.105469 70.738281 144.582031 70.738281 144.003906 C 70.738281 143.507812 70.847656 143.035156 71.070312 142.585938 C 71.285156 142.136719 71.585938 141.777344 71.964844 141.511719 C 72.34375 141.238281 72.753906 141.105469 73.195312 141.105469 C 73.417969 141.105469 73.640625 141.136719 73.855469 141.199219 Z M 66.558594 141.167969 L 67.652344 141.167969 L 69.09375 144.664062 L 69.109375 144.648438 C 69.070312 144.511719 69.039062 144.308594 69.019531 144.035156 L 69.019531 141.167969 L 70.15625 141.167969 L 70.15625 146.964844 L 69.082031 146.964844 L 67.652344 143.46875 L 67.636719 143.480469 C 67.675781 143.839844 67.703125 144.113281 67.710938 144.304688 L 67.710938 146.964844 L 66.558594 146.964844 Z M 64.589844 141.167969 L 65.742188 141.167969 L 65.742188 146.964844 L 64.589844 146.964844 Z M 57.894531 146.773438 L 57.894531 145.671875 C 58.152344 145.867188 58.429688 145.972656 58.730469 145.988281 C 59.109375 145.972656 59.339844 145.808594 59.40625 145.496094 C 59.457031 145.289062 59.417969 145.117188 59.304688 144.976562 C 59.191406 144.835938 58.996094 144.671875 58.71875 144.480469 C 58.449219 144.292969 58.246094 144.128906 58.117188 143.988281 C 57.832031 143.703125 57.679688 143.308594 57.664062 142.804688 C 57.679688 142.523438 57.714844 142.296875 57.773438 142.128906 C 57.867188 141.800781 58.046875 141.542969 58.316406 141.355469 C 58.578125 141.167969 58.875 141.074219 59.210938 141.074219 C 59.542969 141.074219 59.871094 141.167969 60.203125 141.351562 L 60.203125 142.476562 C 59.914062 142.234375 59.636719 142.113281 59.363281 142.113281 C 59.054688 142.113281 58.863281 142.296875 58.792969 142.667969 C 58.796875 142.800781 58.835938 142.925781 58.90625 143.039062 C 58.972656 143.15625 59.078125 143.269531 59.214844 143.390625 C 59.347656 143.507812 59.492188 143.621094 59.644531 143.726562 C 59.792969 143.835938 59.875 143.894531 59.886719 143.902344 C 60.09375 144.066406 60.257812 144.273438 60.367188 144.515625 C 60.476562 144.761719 60.53125 145.023438 60.53125 145.3125 C 60.53125 145.625 60.460938 145.914062 60.320312 146.183594 C 60.179688 146.453125 59.980469 146.664062 59.726562 146.820312 C 59.472656 146.980469 59.183594 147.058594 58.863281 147.058594 C 58.53125 147.058594 58.207031 146.960938 57.894531 146.773438 Z M 54.792969 141.167969 L 57.109375 141.167969 L 57.109375 142.234375 L 55.949219 142.234375 L 55.949219 143.496094 L 56.96875 143.496094 L 56.96875 144.574219 L 55.949219 144.574219 L 55.949219 145.882812 L 57.117188 145.882812 L 57.117188 146.964844 L 54.792969 146.964844 Z M 52.828125 141.167969 L 53.980469 141.167969 L 53.980469 146.964844 L 52.828125 146.964844 Z M 49.910156 142.113281 L 49.910156 143.644531 C 49.984375 143.644531 50.039062 143.648438 50.082031 143.65625 C 50.605469 143.644531 50.851562 143.34375 50.828125 142.757812 C 50.828125 142.328125 50.585938 142.113281 50.097656 142.113281 Z M 48.761719 141.167969 L 50.050781 141.167969 C 51.277344 141.167969 51.910156 141.683594 51.960938 142.710938 C 51.960938 143.476562 51.679688 144.011719 51.128906 144.320312 L 52.136719 146.964844 L 50.933594 146.964844 L 49.925781 144.289062 L 49.910156 144.289062 L 49.910156 146.964844 L 48.761719 146.964844 Z M 45.292969 141.167969 L 48.226562 141.167969 L 48.226562 142.234375 L 47.332031 142.234375 L 47.332031 146.964844 L 46.191406 146.964844 L 46.191406 142.234375 L 45.292969 142.234375 Z M 42.277344 146.773438 L 42.277344 145.671875 C 42.535156 145.867188 42.8125 145.972656 43.113281 145.988281 C 43.496094 145.972656 43.71875 145.808594 43.792969 145.496094 C 43.839844 145.289062 43.804688 145.117188 43.691406 144.976562 C 43.574219 144.835938 43.378906 144.671875 43.101562 144.480469 C 42.832031 144.292969 42.628906 144.128906 42.5 143.988281 C 42.214844 143.703125 42.0625 143.308594 42.046875 142.804688 C 42.0625 142.523438 42.097656 142.296875 42.15625 142.128906 C 42.253906 141.800781 42.433594 141.542969 42.699219 141.355469 C 42.960938 141.167969 43.261719 141.074219 43.59375 141.074219 C 43.925781 141.074219 44.257812 141.167969 44.585938 141.351562 L 44.585938 142.476562 C 44.296875 142.234375 44.019531 142.113281 43.746094 142.113281 C 43.441406 142.113281 43.25 142.296875 43.175781 142.667969 C 43.179688 142.800781 43.21875 142.925781 43.289062 143.039062 C 43.355469 143.15625 43.460938 143.269531 43.59375 143.390625 C 43.730469 143.507812 43.875 143.621094 44.027344 143.726562 C 44.175781 143.835938 44.257812 143.894531 44.269531 143.902344 C 44.476562 144.066406 44.640625 144.273438 44.75 144.515625 C 44.859375 144.761719 44.914062 145.023438 44.914062 145.3125 C 44.914062 145.625 44.84375 145.914062 44.703125 146.183594 C 44.5625 146.453125 44.363281 146.664062 44.109375 146.820312 C 43.855469 146.980469 43.570312 147.058594 43.246094 147.058594 C 42.914062 147.058594 42.589844 146.960938 42.277344 146.773438 Z M 37.980469 141.167969 L 39.117188 141.167969 L 39.117188 145.234375 C 39.117188 145.757812 39.308594 146.019531 39.6875 146.019531 C 39.933594 146.023438 40.089844 145.953125 40.160156 145.808594 C 40.226562 145.660156 40.265625 145.445312 40.265625 145.164062 L 40.265625 141.167969 L 41.414062 141.167969 L 41.414062 145.402344 C 41.414062 145.917969 41.296875 146.316406 41.058594 146.601562 C 40.820312 146.890625 40.367188 147.042969 39.703125 147.058594 C 39.195312 147.066406 38.78125 146.945312 38.460938 146.6875 C 38.140625 146.433594 37.980469 146 37.980469 145.390625 Z M 35.097656 142.1875 L 35.097656 145.941406 C 35.511719 145.945312 35.808594 145.757812 35.992188 145.375 C 36.171875 144.996094 36.265625 144.539062 36.265625 144.003906 C 36.265625 143.527344 36.164062 143.105469 35.964844 142.738281 C 35.765625 142.371094 35.476562 142.1875 35.097656 142.1875 Z M 33.941406 141.167969 L 35.097656 141.167969 C 35.90625 141.167969 36.503906 141.457031 36.882812 142.035156 C 37.265625 142.613281 37.441406 143.351562 37.410156 144.242188 C 37.347656 146.058594 36.546875 146.964844 35.003906 146.964844 L 33.941406 146.964844 Z M 29.542969 141.167969 L 30.636719 141.167969 L 32.082031 144.664062 L 32.097656 144.648438 C 32.054688 144.511719 32.027344 144.308594 32.003906 144.035156 L 32.003906 141.167969 L 33.144531 141.167969 L 33.144531 146.964844 L 32.066406 146.964844 L 30.636719 143.46875 L 30.621094 143.480469 C 30.660156 143.839844 30.6875 144.113281 30.699219 144.304688 L 30.699219 146.964844 L 29.542969 146.964844 Z M 27.578125 141.167969 L 28.730469 141.167969 L 28.730469 146.964844 L 27.578125 146.964844 Z M 20.710938 141.167969 L 23.648438 141.167969 L 23.648438 142.234375 L 22.75 142.234375 L 22.75 146.964844 L 21.613281 146.964844 L 21.613281 142.234375 L 20.710938 142.234375 Z M 17.699219 146.773438 L 17.699219 145.671875 C 17.953125 145.867188 18.234375 145.972656 18.535156 145.988281 C 18.914062 145.972656 19.140625 145.808594 19.214844 145.496094 C 19.257812 145.289062 19.222656 145.117188 19.109375 144.976562 C 18.992188 144.835938 18.796875 144.671875 18.523438 144.480469 C 18.25 144.292969 18.050781 144.128906 17.921875 143.988281 C 17.632812 143.703125 17.484375 143.308594 17.46875 142.804688 C 17.484375 142.523438 17.519531 142.296875 17.574219 142.128906 C 17.671875 141.800781 17.851562 141.542969 18.117188 141.355469 C 18.382812 141.167969 18.679688 141.074219 19.011719 141.074219 C 19.347656 141.074219 19.675781 141.167969 20.003906 141.351562 L 20.003906 142.476562 C 19.71875 142.234375 19.4375 142.113281 19.167969 142.113281 C 18.859375 142.113281 18.667969 142.296875 18.597656 142.667969 C 18.601562 142.800781 18.640625 142.925781 18.710938 143.039062 C 18.777344 143.15625 18.882812 143.269531 19.015625 143.390625 C 19.152344 143.507812 19.296875 143.621094 19.449219 143.726562 C 19.597656 143.835938 19.679688 143.894531 19.691406 143.902344 C 19.898438 144.066406 20.058594 144.273438 20.167969 144.515625 C 20.28125 144.761719 20.335938 145.023438 20.335938 145.3125 C 20.335938 145.625 20.265625 145.914062 20.125 146.183594 C 19.984375 146.453125 19.785156 146.664062 19.53125 146.820312 C 19.277344 146.980469 18.988281 147.058594 18.667969 147.058594 C 18.332031 147.058594 18.011719 146.960938 17.699219 146.773438 Z M 14.597656 141.167969 L 16.914062 141.167969 L 16.914062 142.234375 L 15.753906 142.234375 L 15.753906 143.496094 L 16.777344 143.496094 L 16.777344 144.574219 L 15.753906 144.574219 L 15.753906 145.882812 L 16.921875 145.882812 L 16.921875 146.964844 L 14.597656 146.964844 Z M 11.683594 142.113281 L 11.683594 143.644531 C 11.757812 143.644531 11.8125 143.648438 11.855469 143.65625 C 12.378906 143.644531 12.625 143.34375 12.601562 142.757812 C 12.601562 142.328125 12.355469 142.113281 11.871094 142.113281 Z M 10.53125 141.167969 L 11.824219 141.167969 C 13.046875 141.167969 13.683594 141.683594 13.730469 142.710938 C 13.730469 143.476562 13.453125 144.011719 12.898438 144.320312 L 13.90625 146.964844 L 12.707031 146.964844 L 11.699219 144.289062 L 11.683594 144.289062 L 11.683594 146.964844 L 10.53125 146.964844 Z M 7.941406 142.144531 C 7.382812 142.132812 7.101562 142.785156 7.101562 144.097656 C 7.101562 144.554688 7.160156 144.980469 7.28125 145.386719 C 7.398438 145.785156 7.601562 145.988281 7.894531 145.988281 C 8.070312 145.988281 8.214844 145.917969 8.332031 145.78125 C 8.449219 145.644531 8.542969 145.433594 8.613281 145.15625 C 8.683594 144.882812 8.722656 144.53125 8.730469 144.113281 C 8.730469 143.582031 8.671875 143.125 8.554688 142.730469 C 8.4375 142.339844 8.234375 142.144531 7.941406 142.144531 Z M 7.878906 141.042969 C 8.226562 141.035156 8.5625 141.132812 8.882812 141.335938 C 9.203125 141.539062 9.460938 141.878906 9.660156 142.347656 C 9.855469 142.816406 9.957031 143.410156 9.957031 144.128906 C 9.957031 144.507812 9.894531 144.933594 9.777344 145.402344 C 9.660156 145.875 9.4375 146.277344 9.109375 146.613281 C 8.78125 146.949219 8.335938 147.097656 7.769531 147.058594 C 7.429688 147.03125 7.117188 146.921875 6.84375 146.730469 C 6.570312 146.539062 6.34375 146.230469 6.164062 145.8125 C 5.984375 145.390625 5.886719 144.851562 5.863281 144.1875 C 5.847656 143.605469 5.917969 143.074219 6.066406 142.601562 C 6.21875 142.125 6.453125 141.753906 6.765625 141.476562 C 7.078125 141.203125 7.449219 141.058594 7.878906 141.042969 Z M 3.019531 141.167969 L 5.332031 141.167969 L 5.332031 142.234375 L 4.171875 142.234375 L 4.171875 143.480469 L 5.226562 143.480469 L 5.226562 144.558594 L 4.171875 144.558594 L 4.171875 146.964844 L 3.019531 146.964844 L 3.019531 141.167969 "/>
</g>
</svg>
