<svg id="bde18e71-b4b1-4d4b-bdcd-51c559687d77" data-name="Layer 1" xmlns="http://www.w3.org/2000/svg" viewBox="0 0 76.15 95.0467"><title>alpac-logo-top</title><g id="af8f3f77-6e56-4620-9b7c-5158ed3e2817" data-name="surface1"><path d="M51.3281,69.4766h8.3711c9.2852,0,20.8086-19.0078,9.9375-31.2461C59.1328,26.6289,49.4766,14.4336,38.0625,3.5234M24.9063,69.4766H16.5c-9.2891,0-20.9531-19.0078-9.9375-31.2461C17.0352,26.6445,27.2773,14.8281,38.0273,3.5234m0,88.9922V5.6133" fill="none" stroke="#4e8f2e" stroke-linecap="square" stroke-miterlimit="10" stroke-width="2.16"/><path d="M33.7773,87.91V14.7578Q22.0059,27.7187,10.3789,40.5313c-8.57,9.289-.8633,24.2656,7.2734,24.2656h7.1993" fill="none" stroke="#4e8f2e" stroke-linecap="square" stroke-miterlimit="10" stroke-width="2.4001"/><path d="M24.8516,60.4063H18.6563c-6.0469,0-11.7344-9.7227-4.5352-17.4961l15.625-17.1368V83.5156" fill="none" stroke="#4e8f2e" stroke-linecap="square" stroke-miterlimit="10" stroke-width="2.4001"/><path d="M42.1328,87.91V14.7578C50.1211,23.5391,58.1133,32.18,65.5313,40.5313c8.496,9.289.7929,24.2656-7.2735,24.2656H51.2734" fill="none" stroke="#4e8f2e" stroke-linecap="square" stroke-miterlimit="10" stroke-width="2.4001"/><path d="M46.3789,83.59V25.7734c5.6875,6.1211,11.16,11.9532,15.625,17.1368,7.1289,7.7734,1.4375,17.4961-4.6094,17.4961H51.2734" fill="none" stroke="#4e8f2e" stroke-linecap="square" stroke-miterlimit="10" stroke-width="2.4001"/></g></svg>