<svg id="e64b6c3f-98d9-43ab-a169-b177f3d0236d" data-name="Layer 1" xmlns="http://www.w3.org/2000/svg" viewBox="0 0 76.15 55.2609"><title>alpac-logo-bottom</title><path d="M72.6406,10.5228l-.8125-4.6563h-.0312l-.7227,4.6563Zm-1.91-7.5117h2.3086l2.6757,11.1523H73.3789l-.4258-1.8789H70.7305l-.41,1.8789H68.1289Zm-12.6641,0h5.6484V5.0658h-1.73v9.0976H59.793V5.0658H58.0664Zm-9.5625,1.82V7.7728a1.394,1.394,0,0,1,.3242.0312c1.0078-.0312,1.4844-.6093,1.4375-1.73,0-.8281-.4726-1.2422-1.4062-1.2422Zm-2.2187-1.82H48.77c2.3594,0,3.5782.9922,3.668,2.9726A3.2389,3.2389,0,0,1,50.84,9.0775l1.9375,5.0859H50.4688L48.5313,9.015h-.0274v5.1484H46.2852Zm-10.6836,0h4.4531V5.0658H37.82V7.4915h1.9649v2.07H37.82v2.5156h2.2461v2.0859H35.6016Zm-9.7383,6.27v3.0352a1.3008,1.3008,0,0,0,.789-.2032,1.1753,1.1753,0,0,0,.461-.582,2.227,2.227,0,0,0,.1406-.8008,1.5543,1.5543,0,0,0-.3476-1.0234A1.27,1.27,0,0,0,25.8633,9.2806Zm0-4.4219V7.5814a1.2609,1.2609,0,0,0,1.3008-1.332,1.5564,1.5564,0,0,0-.3047-1.02,1.1465,1.1465,0,0,0-.9375-.3711ZM23.6445,3.0111h2.543a3.1243,3.1243,0,0,1,2.0547.68,2.9134,2.9134,0,0,1,.9766,2.0429V6.222A2.3873,2.3873,0,0,1,28.0664,8.41a2.787,2.787,0,0,1,1.3438,2.543,2.9539,2.9539,0,0,1-.4141,1.7539A2.8212,2.8212,0,0,1,27.7344,13.8a4.3794,4.3794,0,0,1-1.8125.3633H23.6445Zm-10.3906,0h2.2188v9.0664H17.75v2.0859H13.2539Zm-8.82,7.5117L3.6211,5.8665H3.59l-.7226,4.6563Zm-1.91-7.5117H4.832L7.5078,14.1634H5.1719l-.43-1.8789H2.5234l-.414,1.8789H-.0781L2.5234,3.0111" fill-rule="evenodd"/><path d="M75.9531,22.5814v2.0273a3.0705,3.0705,0,0,0-.84-.1172,2.8217,2.8217,0,0,0-1.2813.3165,2.5151,2.5151,0,0,0-1.0507,1.0664,4.1523,4.1523,0,0,0-.4375,1.9882,5.0677,5.0677,0,0,0,.3046,1.7969,3.49,3.49,0,0,0,.9258,1.4492,2.11,2.11,0,0,0,1.4453.57,6.6775,6.6775,0,0,0,.9336-.164v2.0742a4.2431,4.2431,0,0,1-1.2422.1758,4.107,4.107,0,0,1-2.3281-.7266,5.2032,5.2032,0,0,1-1.7539-2.0547,6.6593,6.6593,0,0,1-.668-3.0039,6.2151,6.2151,0,0,1,.6289-2.7265,5.396,5.396,0,0,1,1.7266-2.0743,4.007,4.007,0,0,1,2.3672-.7734A4.6317,4.6317,0,0,1,75.9531,22.5814Zm-15.3164-.0586h2.2188V33.6751H60.6367Zm-11.7969,0h4.4493v2.0586h-2.23v2.3945H53.082v2.07H51.0586v4.6289H48.84Zm-9.7421,0h2.2187V33.6751H39.0977Zm-7.0469.0586v2.0273a3.0991,3.0991,0,0,0-.8438-.1172,2.8213,2.8213,0,0,0-1.2812.3165,2.5372,2.5372,0,0,0-1.0508,1.0664,4.1107,4.1107,0,0,0-.4336,1.9882,5.065,5.065,0,0,0,.3008,1.7969,3.4879,3.4879,0,0,0,.9258,1.4492,2.1193,2.1193,0,0,0,1.4492.57,6.7755,6.7755,0,0,0,.9336-.164v2.0742a4.2621,4.2621,0,0,1-1.2422.1758,4.1189,4.1189,0,0,1-2.332-.7266,5.2338,5.2338,0,0,1-1.7539-2.0547,6.6577,6.6577,0,0,1-.6641-3.0039,6.16,6.16,0,0,1,.6289-2.7265A5.3531,5.3531,0,0,1,28.41,23.179a4.024,4.024,0,0,1,2.3671-.7734A4.6608,4.6608,0,0,1,32.0508,22.5814ZM16.57,30.0384l-.8164-4.66h-.0273L15,30.0384Zm-1.91-7.5156h2.3086l2.6757,11.1523H17.3086l-.43-1.8789H14.66l-.4141,1.8789H12.0586Zm-12.3125,1.82v2.9453a1.75,1.75,0,0,0,1.25-.3281,1.5583,1.5583,0,0,0,.3906-1.1992q0-1.4179-1.3477-1.418Zm-2.2188-1.82h2.793a3.3467,3.3467,0,0,1,2.3437.7852,3.1974,3.1974,0,0,1,.9571,2.2773,3.12,3.12,0,0,1-.91,2.6172,3.6392,3.6392,0,0,1-2.4492.9336,2.7109,2.7109,0,0,0-.5156-.0586v4.5976H.1289V22.5228" fill-rule="evenodd"/><path d="M.3164,18.554h75.668" fill="none" stroke="#000" stroke-miterlimit="10" stroke-width="2.1433"/><path d="M.2266,39.3626H76.0742V54.1751H.2266V39.3626" fill-rule="evenodd"/><path d="M73.7773,43.8939v1.0508a1.671,1.671,0,0,0-.4414-.0625,1.4534,1.4534,0,0,0-.66.1679,1.2712,1.2712,0,0,0-.5469.5547,2.145,2.145,0,0,0-.2305,1.0313,2.6681,2.6681,0,0,0,.16.9336,1.8319,1.8319,0,0,0,.4805.7578,1.1051,1.1051,0,0,0,.7539.293,3.12,3.12,0,0,0,.4843-.0821v1.0742a2.1891,2.1891,0,0,1-1.8593-.2812,2.7375,2.7375,0,0,1-.91-1.07,3.4544,3.4544,0,0,1-.3476-1.5625,3.15,3.15,0,0,1,.332-1.418,2.7186,2.7186,0,0,1,.8945-1.0742,2.0566,2.0566,0,0,1,1.23-.4063A2.3647,2.3647,0,0,1,73.7773,43.8939Zm-7.2968-.0313h1.0937l1.4414,3.4961.0157-.0156a3.1882,3.1882,0,0,1-.09-.6133V43.8626h1.1367V49.66H69.0039l-1.43-3.4961-.0156.0117c.0391.3594.0664.6329.0742.8243v2.66H66.4805Zm-1.9688,0h1.1524V49.66H64.5117Zm-6.6953,5.6055V48.3665a1.487,1.487,0,0,0,.8359.3165.6271.6271,0,0,0,.6758-.4922.5694.5694,0,0,0-.1015-.52,2.8652,2.8652,0,0,0-.586-.4961,3.76,3.76,0,0,1-.6015-.4921,1.6788,1.6788,0,0,1-.4532-1.1836,2.5609,2.5609,0,0,1,.1094-.6758,1.3676,1.3676,0,0,1,.543-.7735,1.4947,1.4947,0,0,1,.8945-.2812,2.0314,2.0314,0,0,1,.9922.2773v1.125a1.3221,1.3221,0,0,0-.84-.3632c-.3086,0-.5.1835-.57.5546a.7386.7386,0,0,0,.1133.3711,1.4519,1.4519,0,0,0,.3086.3516,4.6574,4.6574,0,0,0,.43.3359c.1484.1094.23.168.2422.1758a1.6422,1.6422,0,0,1,.48.6133,1.9277,1.9277,0,0,1,.164.7969,1.8521,1.8521,0,0,1-.2109.8711,1.6085,1.6085,0,0,1-.5938.6367,1.5859,1.5859,0,0,1-.8632.2383A1.8673,1.8673,0,0,1,57.8164,49.4681Zm-3.1016-5.6055h2.3165V44.929h-1.16v1.2618h1.02v1.0781h-1.02v1.3086h1.168V49.66H54.7148Zm-1.9648,0h1.1523V49.66H52.75Zm-2.918.9454v1.5312a.9829.9829,0,0,1,.1719.0117c.5234-.0117.77-.3125.7461-.8984,0-.43-.2422-.6445-.73-.6445Zm-1.1484-.9454h1.2891c1.2265,0,1.8593.5157,1.91,1.543a1.6907,1.6907,0,0,1-.832,1.6094L52.0586,49.66H50.8555l-1.0078-2.6758H49.832V49.66H48.6836Zm-3.4688,0h2.9336V44.929h-.8945v4.73H46.1133v-4.73h-.8985Zm-3.0156,5.6055V48.3665a1.4871,1.4871,0,0,0,.836.3165.6341.6341,0,0,0,.68-.4922.58.58,0,0,0-.1015-.52,3.0253,3.0253,0,0,0-.59-.4961,3.76,3.76,0,0,1-.6015-.4921,1.6783,1.6783,0,0,1-.4531-1.1836,2.5573,2.5573,0,0,1,.1093-.6758,1.405,1.405,0,0,1,.543-.7735,1.5031,1.5031,0,0,1,.8945-.2812,2.02,2.02,0,0,1,.9922.2773v1.125a1.3219,1.3219,0,0,0-.84-.3632c-.3047,0-.4961.1835-.57.5546a.7375.7375,0,0,0,.1132.3711,1.5156,1.5156,0,0,0,.3047.3516,5.3141,5.3141,0,0,0,.4336.3359c.1485.1094.23.168.2422.1758a1.6422,1.6422,0,0,1,.48.6133,1.9261,1.9261,0,0,1,.164.7969,1.8521,1.8521,0,0,1-.2109.8711,1.6082,1.6082,0,0,1-.5937.6367,1.5771,1.5771,0,0,1-.8633.2383A1.8673,1.8673,0,0,1,42.1992,49.4681Zm-4.2969-5.6055h1.1368V47.929c0,.5235.1914.7852.57.7852.2461.0039.4023-.0664.4726-.2109a1.6208,1.6208,0,0,0,.1055-.6446V43.8626h1.1484V48.097a1.8149,1.8149,0,0,1-.3554,1.1992,1.757,1.757,0,0,1-1.3555.4571,1.87,1.87,0,0,1-1.2422-.3711,1.5642,1.5642,0,0,1-.4805-1.2969Zm-2.8828,1.02v3.7539a.9147.9147,0,0,0,.8946-.5664,3.1775,3.1775,0,0,0,.2734-1.3711,2.6123,2.6123,0,0,0-.3008-1.2656A.9413.9413,0,0,0,35.02,44.8822Zm-1.1562-1.02H35.02a1.9838,1.9838,0,0,1,1.7852.8672,3.6836,3.6836,0,0,1,.5273,2.2071q-.0937,2.7246-2.4062,2.7226H33.8633Zm-4.3985,0h1.0938l1.4453,3.4961.0156-.0156a3.1384,3.1384,0,0,1-.0937-.6133V43.8626h1.1406V49.66H31.9883l-1.43-3.4961-.0156.0117c.039.3594.0664.6329.0781.8243v2.66H29.4648Zm-1.9648,0h1.1523V49.66H27.5Zm-6.8672,0H23.57V44.929h-.8984v4.73H21.5352v-4.73h-.9024Zm-3.0117,5.6055V48.3665a1.4766,1.4766,0,0,0,.8359.3165.6369.6369,0,0,0,.68-.4922.5935.5935,0,0,0-.1054-.52,3.1007,3.1007,0,0,0-.586-.4961,3.59,3.59,0,0,1-.6015-.4921,1.662,1.662,0,0,1-.4532-1.1836,2.7567,2.7567,0,0,1,.1055-.6758,1.4045,1.4045,0,0,1,.543-.7735,1.5115,1.5115,0,0,1,.8945-.2812,2.0091,2.0091,0,0,1,.9922.2773v1.125a1.313,1.313,0,0,0-.836-.3632c-.3085,0-.5.1835-.57.5546a.7376.7376,0,0,0,.1133.3711,1.5156,1.5156,0,0,0,.3047.3516,5.3141,5.3141,0,0,0,.4336.3359c.1484.1094.2305.168.2422.1758a1.6311,1.6311,0,0,1,.4765.6133,1.9368,1.9368,0,0,1-.0429,1.668,1.6085,1.6085,0,0,1-.5938.6367,1.586,1.586,0,0,1-.8633.2383A1.8569,1.8569,0,0,1,17.6211,49.4681ZM14.52,43.8626h2.3164V44.929h-1.16v1.2618h1.0234v1.0781H15.6758v1.3086h1.168V49.66H14.52Zm-2.914.9454v1.5312a.9816.9816,0,0,1,.1718.0117c.5235-.0117.77-.3125.7461-.8984,0-.43-.2461-.6445-.73-.6445Zm-1.1524-.9454h1.293q1.834,0,1.9062,1.543a1.6838,1.6838,0,0,1-.832,1.6094L13.8281,49.66H12.6289l-1.0078-2.6758h-.0156V49.66H10.4531Zm-2.59.9766q-.8379-.0175-.84,1.9531a4.47,4.47,0,0,0,.18,1.2891c.1172.3984.32.6016.6133.6016a.5533.5533,0,0,0,.4375-.2071,1.5564,1.5564,0,0,0,.2813-.625,4.6628,4.6628,0,0,0,.1171-1.0429,4.8571,4.8571,0,0,0-.1757-1.3829C8.3594,45.0345,8.1563,44.8392,7.8633,44.8392Zm-.0625-1.1016a1.7736,1.7736,0,0,1,1.0039.293,2.14,2.14,0,0,1,.7773,1.0117,4.6583,4.6583,0,0,1,.2969,1.7813,5.3257,5.3257,0,0,1-.18,1.2734,2.59,2.59,0,0,1-.6679,1.211,1.6185,1.6185,0,0,1-1.34.4453,1.8529,1.8529,0,0,1-.9258-.3282,2.0955,2.0955,0,0,1-.68-.9179,4.602,4.602,0,0,1-.3007-1.625,4.8463,4.8463,0,0,1,.2031-1.586,2.465,2.465,0,0,1,.6992-1.125A1.7362,1.7362,0,0,1,7.8008,43.7376Zm-4.8594.125H5.2539V44.929h-1.16v1.2461H5.1484v1.0782H4.0938V49.66H2.9414V43.8626" fill="#fffff4" fill-rule="evenodd"/></svg>