<svg id="ebd4a709-0532-40bd-8889-ff4c5322a2ea" data-name="Layer 1" xmlns="http://www.w3.org/2000/svg" viewBox="0 0 50 50"><title>Forestry Icon Reverse</title><path d="M25,3A22,22,0,1,0,47,25,22.025,22.025,0,0,0,25,3Z" fill="#a7b233"/><g id="f39e6886-a14e-4745-90c9-a96e6a3abe62" data-name="Page-1"><g id="a53bc08b-f027-4276-85c4-15647d26bb34" data-name="Landcover---Methods-Tab"><g id="bbfe8dfb-4766-4b66-b19f-d6885ecc1d5c" data-name="Group-6"><path id="a6757c10-3b3f-4145-a090-090e2be0463b" data-name="Combined-Shape" d="M31.944,21.024l3.214-4.65,4.1934,6.0468H37.5889l3.5249,5.0858H39.1121l4.2155,6.0713H37.97l-5.4316-7.8545h2.669Zm-18.03,12.6978H15.652v2.6509H13.8649ZM10.6264,22.4212l4.1909-6.0468,3.2178,4.6735L14.89,25.7226h2.6677L12.104,33.5783H6.6724l4.2155-6.0713H8.864l3.5249-5.0858ZM25.0131,9.6273l5.55,8.1441H28.18l4.7632,6.7709H30.2758l5.6215,8.0963-9.98-.0736V36.3H24.0117V32.565H14.1043l5.62-8.0951H17.0581l4.7632-6.7709H19.4385Zm9.4551,26.7454V33.7218H36.206v2.6509Z" fill="#fff" fill-rule="evenodd"/></g></g></g></svg>