<svg width="49" height="49" viewBox="0 0 49 49" fill="none" xmlns="http://www.w3.org/2000/svg">
<path fill-rule="evenodd" clip-rule="evenodd" d="M24.5 49C38.031 49 49 38.031 49 24.5C49 10.969 38.031 0 24.5 0C10.969 0 0 10.969 0 24.5C0 38.031 10.969 49 24.5 49Z" fill="#A3AA83"/>
<path fill-rule="evenodd" clip-rule="evenodd" d="M24.5004 17.3389C23.244 17.3389 22.6158 16.7107 22.6158 15.4543C22.6158 14.1979 23.244 13.5697 24.5004 13.5697C25.7568 13.5697 26.385 14.1979 26.385 15.4543C26.385 16.7107 25.7568 17.3389 24.5004 17.3389ZM26.385 33.1697H27.8927V33.9235H21.862V33.1697H23.3696V21.862H21.862V21.1081H26.385V33.1697ZM10.9149 10.9149C14.6733 7.1565 19.2017 5.27734 24.5004 5.27734C29.7991 5.27734 34.3276 7.1565 38.086 10.9149C41.8443 14.6733 43.7235 19.2017 43.7235 24.5004C43.7235 29.7991 41.8443 34.3276 38.086 38.086C34.3276 41.8443 29.7991 43.7235 24.5004 43.7235C19.2017 43.7235 14.6733 41.8443 10.9149 38.086C7.1565 34.3276 5.27734 29.7991 5.27734 24.5004C5.27734 19.2017 7.1565 14.6733 10.9149 10.9149ZM11.9791 37.0218C15.4418 40.4845 19.6155 42.2158 24.5004 42.2158C29.3853 42.2158 33.5591 40.4845 37.0218 37.0218C40.4845 33.5591 42.2158 29.3853 42.2158 24.5004C42.2158 19.6155 40.4845 15.4418 37.0218 11.9791C33.5591 8.51637 29.3853 6.78504 24.5004 6.78504C19.6155 6.78504 15.4418 8.51637 11.9791 11.9791C8.51637 15.4418 6.78504 19.6155 6.78504 24.5004C6.78504 29.3853 8.51637 33.5591 11.9791 37.0218Z" fill="white"/>
</svg>
